<svg width="282" height="153" viewBox="0 0 282 153" fill="none" xmlns="http://www.w3.org/2000/svg">
<rect x="2.5" y="2.5" width="277" height="148" rx="2.5" fill="white" stroke="black" stroke-width="5"/>
<path d="M98 79.5L184 79" stroke="black" stroke-width="5" stroke-linecap="round"/>
<path d="M98 99.5L184 99" stroke="black" stroke-width="5" stroke-linecap="round"/>
<path d="M98 119.5L184 119" stroke="black" stroke-width="5" stroke-linecap="round"/>
<rect x="223.5" y="12.5" width="38" height="42" rx="3.5" fill="white" stroke="black" stroke-width="3"/>
<circle cx="182" cy="32" r="24" fill="white" stroke="#C74F54" stroke-width="2"/>
<circle cx="182" cy="32" r="14" fill="white" stroke="#C74F54" stroke-width="2"/>
<path d="M127 30.8065C127.838 30.2736 128.478 29.8123 129.423 29.4608C129.888 29.2877 130.433 29.3469 130.855 29.1628C131.675 28.8049 132.528 28.4925 133.388 28.1727C134.824 27.6382 136.262 27.173 137.903 27.173C139.366 27.173 141.058 27 142.639 27C144.983 27 146.929 27.3316 149.137 27.8651C151.321 28.3932 153.581 28.7725 155.732 29.3358C156.938 29.6516 158.128 30.0328 159.33 30.3259C160.402 30.5872 161.668 30.4139 162.683 30.7681C163.626 31.0973 165.163 30.9795 166.195 30.9795C167.447 30.9795 168.699 30.9795 169.952 30.9795C171.457 30.9795 172.932 30.0798 174.088 29.4223C174.731 29.0562 175.306 28.2835 176.009 28.0381C176.35 27.9189 176.847 27.5866 177 27.346" stroke="#C74F54" stroke-width="2" stroke-linecap="round"/>
<path d="M127 36.8065C127.838 36.2736 128.478 35.8123 129.423 35.4608C129.888 35.2877 130.433 35.3469 130.855 35.1628C131.675 34.8049 132.528 34.4925 133.388 34.1727C134.824 33.6382 136.262 33.173 137.903 33.173C139.366 33.173 141.058 33 142.639 33C144.983 33 146.929 33.3316 149.137 33.8651C151.321 34.3932 153.581 34.7725 155.732 35.3358C156.938 35.6516 158.128 36.0328 159.33 36.3259C160.402 36.5872 161.668 36.4139 162.683 36.7681C163.626 37.0973 165.163 36.9795 166.195 36.9795C167.447 36.9795 168.699 36.9795 169.952 36.9795C171.457 36.9795 172.932 36.0798 174.088 35.4223C174.731 35.0562 175.306 34.2835 176.009 34.0381C176.35 33.9189 176.847 33.5866 177 33.346" stroke="#C74F54" stroke-width="2" stroke-linecap="round"/>
<path d="M127 42.8065C127.838 42.2736 128.478 41.8123 129.423 41.4608C129.888 41.2877 130.433 41.3469 130.855 41.1628C131.675 40.8049 132.528 40.4925 133.388 40.1727C134.824 39.6382 136.262 39.173 137.903 39.173C139.366 39.173 141.058 39 142.639 39C144.983 39 146.929 39.3316 149.137 39.8651C151.321 40.3932 153.581 40.7725 155.732 41.3358C156.938 41.6516 158.128 42.0328 159.33 42.3259C160.402 42.5872 161.668 42.4139 162.683 42.7681C163.626 43.0973 165.163 42.9795 166.195 42.9795C167.447 42.9795 168.699 42.9795 169.952 42.9795C171.457 42.9795 172.932 42.0798 174.088 41.4223C174.731 41.0562 175.306 40.2835 176.009 40.0381C176.35 39.9189 176.847 39.5866 177 39.346" stroke="#C74F54" stroke-width="2" stroke-linecap="round"/>
<path fill-rule="evenodd" clip-rule="evenodd" d="M231 22.2946C231 22.2946 238.067 20.0384 242.736 20.0005C247.608 19.9609 255 22.2946 255 22.2946C255 22.2946 254.527 31.5691 252.183 36.412C249.84 41.2548 243.381 47 243.381 47C243.381 47 236.424 40.7055 234.227 36.412C231.653 31.379 231 22.2946 231 22.2946ZM242.736 22.8239C239.198 22.8581 233.758 24.471 233.758 24.471C233.758 24.471 235.016 31.9757 237.279 36.0002C239.161 39.3473 243.381 43.2353 243.381 43.2353C243.381 43.2353 247.649 38.6226 249.367 35.3531C251.506 31.2812 252.183 24.471 252.183 24.471C252.183 24.471 246.477 22.7878 242.736 22.8239Z" fill="#E5BF99"/>
<path d="M233.758 24.471C233.758 24.471 239.198 22.8581 242.736 22.8239C246.477 22.7878 252.183 24.471 252.183 24.471C252.183 24.471 251.506 31.2812 249.367 35.3531C247.649 38.6226 243.381 43.2353 243.381 43.2353C243.381 43.2353 239.161 39.3473 237.279 36.0002C235.016 31.9757 233.758 24.471 233.758 24.471Z" fill="#F5EADC"/>
<path d="M231 22.2946L230.848 21.8183L230.473 21.9379L230.501 22.3304L231 22.2946ZM242.736 20.0005L242.732 19.5005L242.736 20.0005ZM255 22.2946L255.499 22.3201L255.519 21.9341L255.151 21.8178L255 22.2946ZM243.381 47L243.046 47.3708L243.379 47.6717L243.714 47.3736L243.381 47ZM234.227 36.412L234.673 36.1843L234.227 36.412ZM233.758 24.471L233.616 23.9916L233.192 24.1173L233.265 24.5536L233.758 24.471ZM242.736 22.8239L242.731 22.324L242.736 22.8239ZM252.183 24.471L252.681 24.5204L252.722 24.1085L252.325 23.9914L252.183 24.471ZM249.367 35.3531L248.924 35.1206L249.367 35.3531ZM243.381 43.2353L243.043 43.6031L243.41 43.9411L243.748 43.5749L243.381 43.2353ZM237.279 36.0002L236.843 36.2452L237.279 36.0002ZM231 22.2946C231.152 22.7709 231.152 22.7709 231.152 22.7709C231.152 22.7709 231.152 22.7709 231.152 22.7708C231.152 22.7708 231.153 22.7707 231.153 22.7706C231.154 22.7704 231.155 22.77 231.157 22.7695C231.16 22.7685 231.165 22.7669 231.171 22.7649C231.184 22.7607 231.204 22.7546 231.23 22.7465C231.282 22.7302 231.359 22.7063 231.459 22.6758C231.659 22.6147 231.951 22.5271 232.316 22.4219C233.046 22.2113 234.068 21.93 235.235 21.6477C237.578 21.0805 240.466 20.519 242.74 20.5005L242.732 19.5005C240.337 19.52 237.356 20.1054 234.999 20.6758C233.816 20.9622 232.779 21.2474 232.039 21.461C231.668 21.5679 231.371 21.6569 231.167 21.7193C231.065 21.7506 230.985 21.7751 230.931 21.792C230.904 21.8004 230.884 21.8069 230.87 21.8113C230.863 21.8135 230.857 21.8152 230.854 21.8164C230.852 21.817 230.851 21.8174 230.85 21.8177C230.849 21.8179 230.849 21.818 230.848 21.8181C230.848 21.8181 230.848 21.8182 230.848 21.8182C230.848 21.8182 230.848 21.8183 231 22.2946ZM242.74 20.5005C245.113 20.4812 248.13 21.0425 250.58 21.6194C251.8 21.9065 252.869 22.195 253.632 22.4116C254.014 22.5199 254.319 22.6101 254.529 22.6731C254.633 22.7047 254.714 22.7294 254.768 22.7461C254.795 22.7545 254.816 22.7609 254.83 22.7651C254.836 22.7673 254.842 22.7689 254.845 22.7699C254.846 22.7704 254.848 22.7708 254.848 22.7711C254.849 22.7712 254.849 22.7713 254.849 22.7713C254.849 22.7714 254.849 22.7714 254.849 22.7714C254.849 22.7714 254.849 22.7714 255 22.2946C255.151 21.8178 255.15 21.8177 255.15 21.8177C255.15 21.8177 255.15 21.8176 255.15 21.8176C255.15 21.8175 255.149 21.8174 255.149 21.8172C255.148 21.8169 255.146 21.8164 255.144 21.8158C255.141 21.8146 255.135 21.8129 255.128 21.8106C255.113 21.806 255.091 21.7993 255.063 21.7906C255.007 21.7732 254.924 21.7478 254.817 21.7156C254.603 21.6512 254.293 21.5594 253.905 21.4495C253.131 21.2298 252.047 20.9373 250.81 20.646C248.346 20.066 245.231 19.4802 242.732 19.5005L242.74 20.5005ZM255 22.2946C254.501 22.2691 254.501 22.2691 254.501 22.2691C254.501 22.2691 254.501 22.2692 254.501 22.2693C254.501 22.2695 254.501 22.2698 254.501 22.2703C254.501 22.2713 254.5 22.2728 254.5 22.2749C254.5 22.2791 254.5 22.2855 254.499 22.294C254.498 22.3111 254.497 22.3368 254.495 22.3707C254.491 22.4386 254.485 22.5392 254.476 22.6693C254.459 22.9296 254.431 23.3076 254.391 23.7767C254.311 24.7152 254.179 26.0166 253.975 27.4676C253.565 30.3866 252.868 33.8484 251.733 36.1942L252.633 36.6297C253.842 34.1327 254.554 30.5358 254.966 27.6068C255.173 26.1338 255.306 24.8139 255.388 23.8621C255.428 23.386 255.456 23.0017 255.474 22.7358C255.483 22.6028 255.489 22.4995 255.493 22.4291C255.495 22.3939 255.497 22.3669 255.498 22.3486C255.498 22.3395 255.499 22.3325 255.499 22.3277C255.499 22.3253 255.499 22.3235 255.499 22.3222C255.499 22.3216 255.499 22.3211 255.499 22.3207C255.499 22.3205 255.499 22.3204 255.499 22.3203C255.499 22.3202 255.499 22.3201 255 22.2946ZM251.733 36.1942C250.596 38.5438 248.44 41.1451 246.538 43.1807C245.592 44.1931 244.719 45.0559 244.082 45.6653C243.763 45.97 243.504 46.211 243.325 46.3756C243.236 46.4578 243.166 46.521 243.119 46.5633C243.096 46.5845 243.078 46.6005 243.066 46.6111C243.06 46.6163 243.056 46.6203 243.053 46.6229C243.052 46.6241 243.051 46.6251 243.05 46.6257C243.05 46.626 243.049 46.6262 243.049 46.6263C243.049 46.6264 243.049 46.6264 243.049 46.6264C243.049 46.6264 243.049 46.6264 243.381 47C243.714 47.3736 243.714 47.3735 243.714 47.3734C243.714 47.3734 243.714 47.3733 243.714 47.3732C243.714 47.3729 243.715 47.3726 243.715 47.3722C243.716 47.3714 243.717 47.3703 243.719 47.3688C243.722 47.3658 243.727 47.3614 243.734 47.3557C243.747 47.3442 243.765 47.3274 243.79 47.3053C243.839 47.2611 243.91 47.1961 244.002 47.1118C244.185 46.9432 244.449 46.6976 244.773 46.3879C245.42 45.7688 246.307 44.8926 247.269 43.8634C249.182 41.8157 251.427 39.1229 252.633 36.6297L251.733 36.1942ZM243.381 47C243.717 46.6292 243.717 46.6292 243.717 46.6292C243.717 46.6292 243.717 46.6291 243.717 46.629C243.717 46.6289 243.716 46.6287 243.716 46.6283C243.715 46.6276 243.714 46.6266 243.712 46.6251C243.709 46.6222 243.704 46.6179 243.698 46.612C243.685 46.6003 243.666 46.5827 243.64 46.5595C243.59 46.513 243.515 46.4441 243.418 46.3546C243.225 46.1757 242.947 45.9148 242.606 45.5882C241.923 44.9347 240.99 44.0192 239.99 42.9709C237.975 40.86 235.734 38.2594 234.673 36.1843L233.782 36.6397C234.917 38.8581 237.253 41.5515 239.266 43.6613C240.28 44.7232 241.224 45.6497 241.914 46.3106C242.26 46.6412 242.542 46.9056 242.738 47.0877C242.836 47.1787 242.913 47.2492 242.965 47.297C242.991 47.321 243.011 47.3392 243.025 47.3516C243.032 47.3578 243.037 47.3625 243.04 47.3657C243.042 47.3673 243.044 47.3685 243.044 47.3694C243.045 47.3698 243.045 47.3701 243.046 47.3704C243.046 47.3705 243.046 47.3706 243.046 47.3707C243.046 47.3707 243.046 47.3708 243.381 47ZM234.673 36.1843C233.422 33.7403 232.625 30.2755 232.141 27.3834C231.901 25.9448 231.74 24.6617 231.639 23.7385C231.589 23.277 231.554 22.9058 231.531 22.6506C231.52 22.523 231.512 22.4244 231.506 22.358C231.504 22.3248 231.502 22.2997 231.501 22.283C231.5 22.2747 231.499 22.2684 231.499 22.2644C231.499 22.2624 231.499 22.2609 231.499 22.2599C231.499 22.2594 231.499 22.2591 231.499 22.2589C231.499 22.2588 231.499 22.2588 231.499 22.2587C231.499 22.2587 231.499 22.2587 231 22.2946C230.501 22.3304 230.501 22.3305 230.501 22.3306C230.501 22.3307 230.501 22.3309 230.501 22.3311C230.501 22.3314 230.501 22.3319 230.501 22.3325C230.502 22.3338 230.502 22.3356 230.502 22.338C230.502 22.3427 230.503 22.3496 230.503 22.3586C230.505 22.3766 230.507 22.403 230.51 22.4376C230.515 22.5068 230.523 22.6082 230.535 22.7389C230.558 23.0001 230.594 23.378 230.645 23.8468C230.747 24.7842 230.911 26.0868 231.155 27.5484C231.641 30.4568 232.458 34.0507 233.782 36.6397L234.673 36.1843ZM233.758 24.471C233.9 24.9503 233.9 24.9503 233.9 24.9503C233.9 24.9503 233.9 24.9503 233.9 24.9503C233.9 24.9503 233.9 24.9502 233.901 24.9501C233.901 24.95 233.902 24.9497 233.903 24.9494C233.906 24.9487 233.909 24.9476 233.914 24.9461C233.924 24.9432 233.939 24.9388 233.959 24.933C233.999 24.9215 234.058 24.9044 234.135 24.8826C234.289 24.839 234.513 24.7765 234.793 24.7013C235.353 24.5509 236.137 24.3499 237.031 24.148C238.827 23.7418 241.028 23.3405 242.741 23.3239L242.731 22.324C240.906 22.3416 238.618 22.7638 236.81 23.1726C235.901 23.3781 235.104 23.5825 234.534 23.7355C234.248 23.8121 234.02 23.8758 233.862 23.9206C233.783 23.943 233.722 23.9606 233.68 23.9727C233.66 23.9787 233.644 23.9834 233.633 23.9866C233.627 23.9882 233.623 23.9894 233.62 23.9902C233.619 23.9906 233.618 23.991 233.617 23.9912C233.617 23.9913 233.616 23.9914 233.616 23.9915C233.616 23.9915 233.616 23.9915 233.616 23.9915C233.616 23.9916 233.616 23.9916 233.758 24.471ZM242.741 23.3239C244.552 23.3064 246.867 23.7074 248.755 24.1222C249.694 24.3285 250.517 24.536 251.105 24.6919C251.399 24.7698 251.634 24.8347 251.795 24.88C251.876 24.9027 251.938 24.9205 251.98 24.9325C252.001 24.9385 252.016 24.9431 252.027 24.9461C252.032 24.9476 252.036 24.9488 252.038 24.9495C252.04 24.9499 252.041 24.9502 252.041 24.9503C252.042 24.9504 252.042 24.9505 252.042 24.9505C252.042 24.9505 252.042 24.9505 252.042 24.9505C252.042 24.9505 252.042 24.9505 252.183 24.471C252.325 23.9914 252.325 23.9914 252.325 23.9913C252.325 23.9913 252.325 23.9913 252.324 23.9913C252.324 23.9912 252.324 23.9911 252.323 23.991C252.323 23.9907 252.321 23.9904 252.32 23.99C252.317 23.9891 252.313 23.9878 252.307 23.9862C252.296 23.9828 252.279 23.978 252.257 23.9717C252.213 23.959 252.149 23.9407 252.066 23.9174C251.901 23.8708 251.661 23.8045 251.361 23.7252C250.763 23.5666 249.925 23.3555 248.97 23.1455C247.069 22.7279 244.661 22.3053 242.731 22.324L242.741 23.3239ZM252.183 24.471C251.686 24.4215 251.686 24.4215 251.686 24.4214C251.686 24.4215 251.686 24.4215 251.686 24.4216C251.686 24.4217 251.686 24.4219 251.686 24.4222C251.686 24.4229 251.686 24.424 251.685 24.4254C251.685 24.4284 251.685 24.433 251.684 24.4391C251.683 24.4515 251.681 24.4701 251.678 24.4949C251.673 24.5443 251.665 24.618 251.653 24.7135C251.631 24.9046 251.597 25.183 251.549 25.5303C251.453 26.2252 251.303 27.1939 251.087 28.2882C250.652 30.4887 249.959 33.1508 248.924 35.1206L249.809 35.5857C250.914 33.4835 251.629 30.7046 252.068 28.482C252.288 27.3647 252.442 26.3764 252.539 25.6671C252.588 25.3123 252.624 25.0269 252.647 24.8296C252.658 24.731 252.667 24.6543 252.672 24.602C252.675 24.5759 252.677 24.5558 252.679 24.5421C252.679 24.5353 252.68 24.53 252.68 24.5264C252.681 24.5246 252.681 24.5232 252.681 24.5222C252.681 24.5217 252.681 24.5213 252.681 24.521C252.681 24.5209 252.681 24.5207 252.681 24.5206C252.681 24.5205 252.681 24.5204 252.183 24.471ZM248.924 35.1206C248.091 36.7069 246.623 38.6441 245.343 40.2031C244.707 40.9783 244.124 41.6524 243.7 42.1326C243.488 42.3726 243.316 42.5639 243.198 42.695C243.138 42.7606 243.092 42.8111 243.061 42.845C243.046 42.862 243.034 42.8748 243.026 42.8833C243.022 42.8876 243.019 42.8908 243.017 42.8929C243.016 42.8939 243.015 42.8947 243.015 42.8951C243.015 42.8954 243.015 42.8956 243.014 42.8957C243.014 42.8957 243.014 42.8957 243.014 42.8958C243.014 42.8958 243.014 42.8958 243.381 43.2353C243.748 43.5749 243.748 43.5748 243.749 43.5748C243.749 43.5747 243.749 43.5746 243.749 43.5746C243.749 43.5744 243.749 43.5741 243.749 43.5738C243.75 43.5732 243.751 43.5723 243.752 43.5711C243.754 43.5687 243.757 43.5652 243.762 43.5606C243.77 43.5515 243.782 43.5381 243.798 43.5204C243.831 43.4852 243.878 43.4334 243.939 43.3664C244.06 43.2325 244.235 43.038 244.45 42.7944C244.88 42.3076 245.471 41.6241 246.116 40.8374C247.4 39.2727 248.925 37.2688 249.809 35.5857L248.924 35.1206ZM243.381 43.2353C243.72 42.8676 243.72 42.8676 243.72 42.8676C243.72 42.8676 243.72 42.8676 243.72 42.8675C243.72 42.8675 243.72 42.8673 243.72 42.8671C243.719 42.8668 243.719 42.8661 243.718 42.8653C243.716 42.8636 243.713 42.861 243.709 42.8574C243.702 42.8504 243.69 42.8396 243.675 42.8254C243.644 42.7969 243.599 42.7543 243.54 42.6988C243.423 42.5877 243.253 42.4247 243.043 42.2185C242.622 41.8059 242.041 41.221 241.402 40.5328C240.118 39.149 238.626 37.3754 237.715 35.7551L236.843 36.2452C237.814 37.9721 239.373 39.816 240.669 41.213C241.321 41.9152 241.913 42.5116 242.342 42.9325C242.557 43.1431 242.732 43.31 242.852 43.4246C242.913 43.482 242.96 43.5262 242.992 43.5563C243.008 43.5713 243.021 43.5829 243.029 43.5907C243.034 43.5946 243.037 43.5976 243.039 43.5997C243.04 43.6007 243.041 43.6015 243.042 43.6021C243.042 43.6024 243.042 43.6026 243.042 43.6028C243.042 43.6028 243.042 43.6029 243.043 43.603C243.043 43.603 243.043 43.6031 243.381 43.2353ZM237.715 35.7551C236.618 33.8047 235.75 30.9778 235.155 28.6046C234.858 27.4246 234.632 26.3689 234.48 25.6084C234.404 25.2283 234.347 24.9222 234.308 24.7117C234.289 24.6064 234.275 24.5251 234.265 24.4703C234.26 24.4429 234.257 24.4221 234.254 24.4083C234.253 24.4015 234.252 24.3963 234.252 24.393C234.252 24.3913 234.251 24.3901 234.251 24.3893C234.251 24.3889 234.251 24.3886 234.251 24.3885C234.251 24.3884 234.251 24.3883 234.251 24.3883C234.251 24.3883 234.251 24.3883 233.758 24.471C233.265 24.5536 233.265 24.5537 233.265 24.5538C233.265 24.5539 233.265 24.554 233.265 24.5542C233.265 24.5545 233.265 24.5549 233.265 24.5554C233.265 24.5564 233.266 24.5579 233.266 24.5599C233.267 24.5638 233.268 24.5695 233.269 24.5769C233.271 24.5918 233.275 24.6136 233.28 24.6422C233.29 24.6993 233.305 24.7831 233.325 24.8909C233.364 25.1065 233.422 25.4182 233.5 25.8045C233.654 26.5769 233.884 27.6489 234.185 28.8481C234.784 31.2334 235.677 34.1711 236.843 36.2452L237.715 35.7551Z" fill="black"/>
</svg>
