<svg width="209" height="234" viewBox="0 0 209 234" fill="none" xmlns="http://www.w3.org/2000/svg">
<path fill-rule="evenodd" clip-rule="evenodd" d="M2 21.5042C2 21.5042 62.2133 2.32659 102 2.00423C143.513 1.66788 206.5 21.5042 206.5 21.5042C206.5 21.5042 202.466 100.339 182.5 141.504C162.534 182.669 107.5 231.504 107.5 231.504C107.5 231.504 48.2142 178 29.5 141.504C7.56281 98.7231 2 21.5042 2 21.5042ZM102 26.0039C71.8569 26.2946 25.5 40.0039 25.5 40.0039C25.5 40.0039 36.2176 103.795 55.5 138.004C71.5369 166.455 107.5 199.504 107.5 199.504C107.5 199.504 143.863 160.295 158.5 132.504C176.729 97.8922 182.5 40.0039 182.5 40.0039C182.5 40.0039 133.875 25.6966 102 26.0039Z" fill="#E5BF99"/>
<path d="M25.5 40.0039C25.5 40.0039 71.8569 26.2946 102 26.0039C133.875 25.6966 182.5 40.0039 182.5 40.0039C182.5 40.0039 176.729 97.8922 158.5 132.504C143.863 160.295 107.5 199.504 107.5 199.504C107.5 199.504 71.5369 166.455 55.5 138.004C36.2176 103.795 25.5 40.0039 25.5 40.0039Z" fill="#F5EADC"/>
<path d="M2 21.5042L1.54479 20.075L0.41898 20.4335L0.503877 21.612L2 21.5042ZM102 2.00423L102.012 3.50418L102 2.00423ZM206.5 21.5042L207.998 21.5809L208.057 20.4221L206.951 20.0735L206.5 21.5042ZM107.5 231.504L106.495 232.618L107.492 233.517L108.496 232.626L107.5 231.504ZM29.5 141.504L30.8347 140.82L29.5 141.504ZM25.5 40.0039L25.0746 38.5655L23.8006 38.9423L24.0207 40.2524L25.5 40.0039ZM102 26.0039L102.014 27.5038L102 26.0039ZM182.5 40.0039L183.993 40.1527L184.116 38.9158L182.923 38.5649L182.5 40.0039ZM158.5 132.504L159.827 133.203L158.5 132.504ZM107.5 199.504L106.485 200.608L107.584 201.619L108.6 200.524L107.5 199.504ZM55.5 138.004L54.1933 138.74L55.5 138.004ZM2 21.5042C2.45521 22.9335 2.45531 22.9335 2.45564 22.9334C2.45606 22.9332 2.45661 22.933 2.45744 22.9328C2.4591 22.9323 2.46167 22.9314 2.46515 22.9303C2.47211 22.9281 2.48271 22.9248 2.4969 22.9203C2.52529 22.9113 2.56806 22.8977 2.6249 22.8798C2.7386 22.844 2.9086 22.7906 3.13244 22.7208C3.58014 22.5812 4.2432 22.376 5.10195 22.1145C6.81949 21.5915 9.31955 20.8433 12.4447 19.9442C18.6958 18.1458 27.4443 15.7444 37.432 13.3332C57.4394 8.50318 82.2999 3.6639 102.012 3.50418L101.988 0.504279C81.9134 0.666928 56.774 5.57764 36.728 10.417C26.689 12.8406 17.8975 15.2537 11.6153 17.0612C8.47378 17.965 5.95885 18.7176 4.22805 19.2446C3.36263 19.5081 2.69319 19.7153 2.23943 19.8568C2.01255 19.9275 1.83958 19.9818 1.72299 20.0186C1.66469 20.037 1.62049 20.051 1.59068 20.0604C1.57578 20.0651 1.56448 20.0687 1.55682 20.0711C1.55299 20.0724 1.55007 20.0733 1.54806 20.0739C1.54706 20.0742 1.54624 20.0745 1.54574 20.0747C1.54515 20.0749 1.54479 20.075 2 21.5042ZM102.012 3.50418C122.579 3.33754 148.559 8.17603 169.474 13.0884C179.916 15.5406 189.064 18.0036 195.601 19.8534C198.87 20.7782 201.484 21.5495 203.281 22.0891C204.179 22.359 204.873 22.5709 205.341 22.7151C205.575 22.7872 205.753 22.8424 205.872 22.8795C205.931 22.898 205.976 22.912 206.006 22.9213C206.021 22.9259 206.032 22.9294 206.039 22.9317C206.043 22.9328 206.045 22.9337 206.047 22.9342C206.048 22.9345 206.049 22.9347 206.049 22.9348C206.049 22.9349 206.049 22.935 206.5 21.5042C206.951 20.0735 206.95 20.0734 206.95 20.0732C206.949 20.073 206.948 20.0728 206.947 20.0724C206.945 20.0718 206.942 20.0708 206.938 20.0695C206.93 20.067 206.918 20.0633 206.903 20.0584C206.871 20.0487 206.825 20.0342 206.764 20.0152C206.642 19.9772 206.461 19.9211 206.224 19.848C205.749 19.7018 205.049 19.4879 204.144 19.216C202.334 18.6721 199.703 17.8963 196.418 16.9667C189.848 15.1077 180.655 12.6326 170.16 10.1678C149.204 5.24608 122.933 0.334572 101.988 0.504279L102.012 3.50418ZM206.5 21.5042C205.002 21.4276 205.002 21.4277 205.002 21.4282C205.002 21.4287 205.002 21.4294 205.002 21.4305C205.002 21.4327 205.002 21.4361 205.001 21.4406C205.001 21.4498 205 21.4636 204.999 21.4822C204.997 21.5194 204.994 21.5753 204.99 21.6496C204.982 21.7982 204.969 22.0201 204.952 22.3119C204.918 22.8955 204.865 23.7584 204.791 24.8722C204.642 27.0997 204.407 30.3305 204.063 34.3371C203.375 42.3512 202.249 53.4641 200.502 65.858C197 90.6974 191.023 120.495 181.15 140.85L183.85 142.159C193.943 121.349 199.966 91.1464 203.473 66.2769C205.229 53.8164 206.36 42.6477 207.052 34.5938C207.398 30.5664 207.634 27.3165 207.784 25.072C207.859 23.9497 207.913 23.0787 207.947 22.4874C207.965 22.1917 207.977 21.966 207.986 21.8137C207.99 21.7376 207.993 21.6798 207.995 21.6409C207.996 21.6214 207.997 21.6066 207.997 21.5966C207.997 21.5916 207.998 21.5878 207.998 21.5851C207.998 21.5838 207.998 21.5828 207.998 21.5821C207.998 21.5813 207.998 21.5809 206.5 21.5042ZM181.15 140.85C171.272 161.217 152.655 183.579 136.418 200.916C128.314 209.568 120.832 216.938 115.375 222.145C112.648 224.749 110.427 226.81 108.89 228.22C108.121 228.925 107.524 229.467 107.119 229.832C106.916 230.014 106.762 230.152 106.659 230.245C106.607 230.291 106.568 230.326 106.542 230.349C106.529 230.36 106.52 230.369 106.513 230.374C106.51 230.377 106.508 230.379 106.506 230.38C106.506 230.381 106.505 230.382 106.505 230.382C106.504 230.382 106.504 230.382 107.5 231.504C108.496 232.626 108.496 232.626 108.496 232.625C108.497 232.625 108.498 232.624 108.499 232.623C108.5 232.622 108.503 232.619 108.507 232.616C108.514 232.61 108.524 232.601 108.538 232.589C108.565 232.564 108.605 232.529 108.658 232.481C108.765 232.386 108.922 232.245 109.127 232.06C109.538 231.689 110.142 231.142 110.918 230.431C112.468 229.009 114.703 226.934 117.447 224.316C122.933 219.08 130.457 211.669 138.607 202.966C154.878 185.594 173.762 162.957 183.85 142.159L181.15 140.85ZM107.5 231.504C108.505 230.391 108.505 230.391 108.504 230.39C108.504 230.39 108.503 230.389 108.503 230.389C108.501 230.387 108.498 230.385 108.495 230.382C108.488 230.375 108.478 230.366 108.464 230.353C108.436 230.328 108.393 230.29 108.338 230.239C108.226 230.138 108.059 229.986 107.841 229.787C107.405 229.388 106.761 228.798 105.935 228.033C104.282 226.503 101.899 224.276 98.9801 221.489C93.1414 215.914 85.1626 208.102 76.6017 199.153C59.4393 181.213 40.0815 158.853 30.8347 140.82L28.1653 142.189C37.6327 160.652 57.2749 183.291 74.4339 201.227C83.0338 210.216 91.0461 218.061 96.9083 223.659C99.8397 226.458 102.234 228.696 103.897 230.235C104.728 231.004 105.377 231.599 105.818 232.002C106.039 232.203 106.207 232.357 106.321 232.46C106.378 232.512 106.421 232.551 106.45 232.577C106.465 232.591 106.476 232.601 106.483 232.607C106.487 232.611 106.49 232.613 106.492 232.615C106.493 232.616 106.494 232.617 106.494 232.617C106.495 232.618 106.495 232.618 107.5 231.504ZM30.8347 140.82C19.9778 119.647 13.1316 89.8409 9.00291 65.2133C6.94228 52.9217 5.56504 41.9617 4.70308 34.0752C4.27215 30.1324 3.97014 26.9591 3.77599 24.7731C3.67892 23.6801 3.60882 22.8341 3.56305 22.2622C3.54016 21.9763 3.52336 21.7589 3.51232 21.6135C3.5068 21.5407 3.50271 21.486 3.50003 21.4497C3.49869 21.4316 3.49769 21.418 3.49704 21.4091C3.49672 21.4047 3.49648 21.4014 3.49633 21.3993C3.49625 21.3982 3.4962 21.3975 3.49616 21.397C3.49613 21.3966 3.49612 21.3965 2 21.5042C0.503877 21.612 0.503911 21.6125 0.503967 21.6132C0.504013 21.6139 0.50409 21.615 0.504184 21.6163C0.504372 21.6188 0.504645 21.6226 0.505004 21.6275C0.505724 21.6374 0.506788 21.6519 0.508202 21.671C0.511031 21.7093 0.515262 21.7659 0.520934 21.8406C0.532279 21.99 0.549394 22.2115 0.572609 22.5015C0.61904 23.0817 0.689873 23.9364 0.787754 25.0385C0.983511 27.2425 1.28748 30.4362 1.72084 34.4011C2.58744 42.33 3.97197 53.3485 6.0442 65.7093C10.1812 90.3864 17.085 120.58 28.1653 142.189L30.8347 140.82ZM25.5 40.0039C25.9254 41.4423 25.9254 41.4423 25.9257 41.4422C25.926 41.4421 25.9264 41.442 25.927 41.4418C25.9283 41.4415 25.9302 41.4409 25.9329 41.4401C25.9382 41.4385 25.9463 41.4362 25.9572 41.433C25.9789 41.4266 26.0117 41.4169 26.0554 41.4041C26.1427 41.3786 26.2733 41.3405 26.4453 41.2906C26.7894 41.191 27.2991 41.0444 27.9593 40.8576C29.2796 40.4839 31.2013 39.9491 33.6022 39.3062C38.4048 38.0203 45.1215 36.3026 52.7764 34.5761C68.1165 31.1163 87.1113 27.6475 102.014 27.5038L101.986 24.504C86.7457 24.6509 67.4905 28.1822 52.1163 31.6497C44.4141 33.3868 37.6577 35.1147 32.8263 36.4083C30.4103 37.0552 28.4748 37.5938 27.1423 37.971C26.476 38.1596 25.9603 38.3078 25.6106 38.4091C25.4358 38.4597 25.3024 38.4987 25.2124 38.525C25.1675 38.5382 25.1333 38.5482 25.1103 38.555C25.0987 38.5584 25.09 38.561 25.084 38.5627C25.0811 38.5636 25.0788 38.5643 25.0772 38.5647C25.0764 38.565 25.0758 38.5651 25.0754 38.5653C25.0749 38.5654 25.0746 38.5655 25.5 40.0039ZM102.014 27.5038C117.773 27.3519 137.76 30.8196 153.882 34.3539C161.927 36.1175 168.98 37.891 174.021 39.2234C176.541 39.8895 178.558 40.4452 179.943 40.8339C180.636 41.0283 181.17 41.181 181.531 41.2848C181.712 41.3367 181.849 41.3765 181.94 41.4031C181.986 41.4164 182.021 41.4265 182.043 41.4332C182.055 41.4365 182.063 41.439 182.069 41.4406C182.072 41.4414 182.074 41.442 182.075 41.4424C182.076 41.4426 182.076 41.4427 182.076 41.4428C182.077 41.4429 182.077 41.4429 182.5 40.0039C182.923 38.5649 182.923 38.5648 182.923 38.5647C182.922 38.5645 182.921 38.5643 182.921 38.5641C182.919 38.5636 182.917 38.5629 182.913 38.562C182.907 38.5602 182.898 38.5575 182.886 38.5539C182.862 38.5468 182.826 38.5364 182.779 38.5226C182.684 38.4952 182.544 38.4546 182.361 38.4018C181.994 38.2962 181.453 38.1418 180.754 37.9455C179.355 37.5531 177.324 36.9934 174.788 36.323C169.715 34.9824 162.62 33.1982 154.524 31.4234C138.365 27.8809 118.101 24.3486 101.986 24.504L102.014 27.5038ZM182.5 40.0039C181.007 39.8551 181.007 39.8551 181.007 39.8554C181.007 39.8558 181.007 39.8563 181.007 39.857C181.007 39.8585 181.007 39.8609 181.006 39.8642C181.006 39.8707 181.005 39.8807 181.003 39.8942C181.001 39.9212 180.997 39.9619 180.991 40.0162C180.98 40.1247 180.963 40.2873 180.939 40.5014C180.893 40.9295 180.823 41.5638 180.727 42.3843C180.534 44.0255 180.239 46.4116 179.828 49.3841C179.005 55.3302 177.718 63.6185 175.865 72.9832C172.15 91.7483 166.183 114.698 157.173 131.805L159.827 133.203C169.047 115.698 175.079 92.3978 178.807 73.5658C180.675 64.132 181.97 55.785 182.799 49.7954C183.214 46.8001 183.512 44.3933 183.706 42.7335C183.803 41.9035 183.875 41.2603 183.922 40.8236C183.946 40.6052 183.963 40.4385 183.975 40.3258C183.981 40.2695 183.985 40.2267 183.988 40.1978C183.99 40.1833 183.991 40.1723 183.991 40.1647C183.992 40.161 183.992 40.1581 183.992 40.1561C183.992 40.1551 183.992 40.1542 183.992 40.1537C183.993 40.1531 183.993 40.1527 182.5 40.0039ZM157.173 131.805C149.931 145.555 137.266 162.205 126.353 175.473C120.907 182.094 115.916 187.849 112.287 191.949C110.473 193.999 109 195.634 107.981 196.756C107.471 197.318 107.075 197.75 106.807 198.042C106.673 198.188 106.571 198.299 106.502 198.373C106.468 198.41 106.442 198.438 106.425 198.457C106.417 198.466 106.41 198.473 106.406 198.477C106.404 198.48 106.403 198.481 106.402 198.482C106.401 198.483 106.401 198.483 106.4 198.484C106.4 198.484 106.4 198.484 107.5 199.504C108.6 200.524 108.6 200.524 108.6 200.523C108.601 200.523 108.601 200.522 108.602 200.522C108.603 200.52 108.605 200.519 108.607 200.516C108.612 200.511 108.618 200.504 108.627 200.494C108.645 200.475 108.672 200.446 108.707 200.408C108.777 200.332 108.881 200.219 109.017 200.071C109.289 199.775 109.688 199.339 110.202 198.773C111.228 197.643 112.71 195.998 114.534 193.937C118.18 189.817 123.195 184.034 128.67 177.378C139.597 164.094 152.432 147.244 159.827 133.203L157.173 131.805ZM107.5 199.504C108.515 198.399 108.515 198.399 108.515 198.399C108.515 198.399 108.514 198.399 108.514 198.398C108.513 198.397 108.511 198.396 108.509 198.394C108.505 198.39 108.499 198.385 108.491 198.377C108.474 198.362 108.449 198.338 108.415 198.307C108.348 198.245 108.247 198.152 108.115 198.028C107.85 197.782 107.458 197.415 106.954 196.938C105.945 195.984 104.483 194.588 102.679 192.823C99.0698 189.293 94.0903 184.29 88.6121 178.401C77.6351 166.603 64.735 151.333 56.8067 137.267L54.1933 138.74C62.3019 153.126 75.4018 168.606 86.4156 180.445C91.9328 186.375 96.9464 191.412 100.581 194.968C102.399 196.746 103.873 198.154 104.893 199.118C105.403 199.601 105.8 199.972 106.07 200.223C106.205 200.349 106.308 200.445 106.378 200.509C106.413 200.542 106.439 200.566 106.457 200.583C106.466 200.591 106.473 200.597 106.478 200.602C106.48 200.604 106.482 200.605 106.483 200.606C106.484 200.607 106.484 200.608 106.484 200.608C106.485 200.608 106.485 200.608 107.5 199.504ZM56.8067 137.267C47.2703 120.349 39.8089 96.0152 34.7238 75.8095C32.1862 65.7265 30.2492 56.7081 28.9467 50.2109C28.2955 46.9628 27.8031 44.3458 27.4738 42.5423C27.3091 41.6406 27.1852 40.9422 27.1026 40.4701C27.0613 40.2341 27.0304 40.0546 27.0098 39.9345C26.9995 39.8745 26.9918 39.8293 26.9867 39.7993C26.9842 39.7843 26.9823 39.7731 26.981 39.7658C26.9804 39.7621 26.98 39.7594 26.9797 39.7577C26.9795 39.7568 26.9794 39.7562 26.9793 39.7558C26.9793 39.7555 26.9793 39.7554 25.5 40.0039C24.0207 40.2524 24.0208 40.2528 24.0209 40.2535C24.021 40.254 24.0211 40.2549 24.0213 40.256C24.0217 40.2581 24.0222 40.2612 24.0229 40.2653C24.0243 40.2734 24.0263 40.2854 24.029 40.3012C24.0343 40.3328 24.0423 40.3797 24.0529 40.4414C24.074 40.5648 24.1056 40.7476 24.1475 40.9872C24.2313 41.4662 24.3565 42.1718 24.5226 43.0812C24.8547 44.8999 25.3503 47.5339 26.0052 50.8006C27.3148 57.3333 29.2623 66.4007 31.8145 76.5417C36.9088 96.7837 44.4473 121.45 54.1933 138.74L56.8067 137.267Z" fill="black"/>
</svg>
