<svg width="211" height="236" viewBox="0 0 211 236" fill="none" xmlns="http://www.w3.org/2000/svg">
<path fill-rule="evenodd" clip-rule="evenodd" d="M3 22.5042C3 22.5042 63.2133 3.32659 103 3.00423C144.513 2.66788 207.5 22.5042 207.5 22.5042C207.5 22.5042 203.466 101.339 183.5 142.504C163.534 183.669 108.5 232.504 108.5 232.504C108.5 232.504 49.2142 179 30.5 142.504C8.56281 99.7231 3 22.5042 3 22.5042ZM103 27.0039C72.8569 27.2946 26.5 41.0039 26.5 41.0039C26.5 41.0039 37.2176 104.795 56.5 139.004C72.5369 167.455 108.5 200.504 108.5 200.504C108.5 200.504 144.863 161.295 159.5 133.504C177.729 98.8922 183.5 41.0039 183.5 41.0039C183.5 41.0039 134.875 26.6966 103 27.0039Z" fill="#E5BF99"/>
<path d="M26.5 41.0039C26.5 41.0039 72.8569 27.2946 103 27.0039C134.875 26.6966 183.5 41.0039 183.5 41.0039C183.5 41.0039 177.729 98.8922 159.5 133.504C144.863 161.295 108.5 200.504 108.5 200.504C108.5 200.504 72.5369 167.455 56.5 139.004C37.2176 104.795 26.5 41.0039 26.5 41.0039Z" fill="#F5EADC"/>
<path d="M3 22.5042L2.24131 20.1221L0.364967 20.7197L0.506462 22.6839L3 22.5042ZM103 3.00423L103.02 5.50415L103 3.00423ZM207.5 22.5042L209.997 22.632L210.096 20.7006L208.251 20.1197L207.5 22.5042ZM108.5 232.504L106.825 234.36L108.486 235.859L110.159 234.374L108.5 232.504ZM30.5 142.504L32.7246 141.364L30.5 142.504ZM26.5 41.0039L25.791 38.6065L23.6677 39.2345L24.0346 41.4181L26.5 41.0039ZM103 27.0039L103.024 29.5038L103 27.0039ZM183.5 41.0039L185.988 41.2519L186.193 39.1904L184.206 38.6056L183.5 41.0039ZM159.5 133.504L161.712 134.669L159.5 133.504ZM108.5 200.504L106.808 202.345L108.641 204.029L110.333 202.204L108.5 200.504ZM56.5 139.004L54.3221 140.231L56.5 139.004ZM3 22.5042C3.75869 24.8863 3.7587 24.8863 3.75894 24.8862C3.75933 24.8861 3.7598 24.886 3.76057 24.8857C3.76211 24.8852 3.76457 24.8845 3.76793 24.8834C3.77466 24.8813 3.78502 24.878 3.79898 24.8735C3.82689 24.8647 3.86918 24.8513 3.92554 24.8336C4.03827 24.798 4.20728 24.7449 4.43012 24.6754C4.87579 24.5365 5.53673 24.332 6.39325 24.0711C8.10637 23.5495 10.6015 22.8028 13.7212 21.9052C19.9619 20.1098 28.6961 17.7123 38.6667 15.3053C58.6612 10.4784 83.4287 5.66288 103.02 5.50415L102.98 0.504312C82.7846 0.667939 57.5521 5.60246 37.4933 10.4449C27.4372 12.8726 18.6315 15.2897 12.3388 17.1001C9.19186 18.0055 6.67197 18.7596 4.93675 19.288C4.06911 19.5522 3.39754 19.76 2.94176 19.9021C2.71386 19.9732 2.53991 20.0278 2.42235 20.0649C2.36357 20.0834 2.31889 20.0975 2.28861 20.1071C2.27347 20.1119 2.26194 20.1156 2.25404 20.1181C2.25009 20.1193 2.24706 20.1203 2.24493 20.121C2.24387 20.1213 2.24297 20.1216 2.24244 20.1218C2.24176 20.122 2.24131 20.1221 3 22.5042ZM103.02 5.50415C123.462 5.33853 149.343 10.1527 170.246 15.0619C180.669 17.5099 189.802 19.9689 196.329 21.8156C199.592 22.7388 202.201 23.5086 203.993 24.0468C204.889 24.316 205.58 24.5272 206.047 24.6708C206.28 24.7426 206.457 24.7975 206.574 24.8342C206.633 24.8526 206.678 24.8664 206.707 24.8755C206.721 24.8801 206.732 24.8835 206.739 24.8857C206.743 24.8868 206.745 24.8876 206.747 24.8882C206.748 24.8884 206.748 24.8886 206.749 24.8887C206.749 24.8888 206.749 24.8888 207.5 22.5042C208.251 20.1197 208.25 20.1195 208.25 20.1193C208.249 20.1191 208.248 20.1188 208.247 20.1185C208.245 20.1178 208.242 20.1168 208.238 20.1155C208.229 20.1129 208.217 20.1091 208.201 20.1042C208.17 20.0942 208.123 20.0796 208.062 20.0605C207.939 20.0222 207.757 19.9657 207.518 19.8923C207.042 19.7455 206.339 19.5309 205.432 19.2582C203.617 18.713 200.981 17.9357 197.69 17.0045C191.109 15.1424 181.902 12.6633 171.389 10.1943C150.42 5.26943 124.051 0.333583 102.98 0.504312L103.02 5.50415ZM207.5 22.5042C205.003 22.3765 205.003 22.3765 205.003 22.3768C205.003 22.3773 205.003 22.378 205.003 22.379C205.003 22.381 205.003 22.3842 205.003 22.3886C205.002 22.3975 205.001 22.411 205.001 22.4293C204.999 22.4659 204.996 22.5212 204.992 22.5949C204.983 22.7422 204.971 22.9629 204.954 23.2534C204.92 23.8344 204.867 24.6946 204.793 25.8055C204.645 28.0275 204.411 31.2519 204.067 35.2515C203.38 43.2523 202.256 54.3466 200.512 66.7184C197.011 91.5477 191.05 121.21 181.251 141.413L185.749 143.595C195.916 122.634 201.955 92.296 205.463 67.4165C207.223 54.9339 208.356 43.7466 209.049 35.6794C209.395 31.645 209.632 28.3888 209.782 26.1386C209.857 25.0135 209.911 24.1398 209.946 23.5459C209.963 23.2489 209.976 23.0219 209.984 22.8684C209.988 22.7917 209.991 22.7333 209.993 22.6937C209.995 22.674 209.995 22.6589 209.996 22.6486C209.996 22.6434 209.996 22.6395 209.996 22.6367C209.997 22.6353 209.997 22.6341 209.997 22.6334C209.997 22.6326 209.997 22.632 207.5 22.5042ZM181.251 141.413C171.442 161.637 152.914 183.908 136.688 201.232C128.6 209.867 121.131 217.225 115.685 222.422C112.962 225.02 110.747 227.077 109.214 228.483C108.448 229.186 107.852 229.726 107.449 230.089C107.248 230.27 107.094 230.408 106.992 230.499C106.941 230.545 106.902 230.579 106.877 230.602C106.864 230.613 106.855 230.622 106.849 230.627C106.846 230.63 106.844 230.632 106.842 230.633C106.842 230.633 106.841 230.634 106.841 230.634C106.841 230.634 106.841 230.634 108.5 232.504C110.159 234.374 110.16 234.374 110.16 234.373C110.161 234.373 110.162 234.372 110.163 234.371C110.165 234.369 110.167 234.367 110.171 234.364C110.178 234.357 110.189 234.348 110.203 234.335C110.231 234.311 110.271 234.274 110.325 234.226C110.432 234.131 110.59 233.989 110.797 233.803C111.21 233.43 111.816 232.881 112.593 232.168C114.148 230.742 116.388 228.662 119.137 226.039C124.634 220.794 132.171 213.369 140.337 204.65C156.62 187.266 175.592 164.537 185.749 143.595L181.251 141.413ZM108.5 232.504C110.175 230.648 110.175 230.648 110.175 230.648C110.174 230.648 110.174 230.647 110.173 230.646C110.171 230.645 110.169 230.643 110.165 230.64C110.159 230.634 110.148 230.624 110.135 230.612C110.107 230.587 110.065 230.549 110.01 230.499C109.899 230.398 109.733 230.247 109.516 230.049C109.081 229.651 108.439 229.062 107.614 228.299C105.965 226.773 103.586 224.549 100.671 221.766C94.8398 216.198 86.8722 208.397 78.3243 199.462C61.1607 181.521 41.8978 159.253 32.7246 141.364L28.2754 143.645C37.8164 162.251 57.5535 184.983 74.7113 202.918C83.3242 211.921 91.3476 219.777 97.2177 225.382C100.153 228.185 102.552 230.427 104.218 231.969C105.051 232.74 105.701 233.336 106.144 233.74C106.365 233.942 106.534 234.097 106.649 234.201C106.706 234.253 106.75 234.292 106.779 234.319C106.794 234.332 106.805 234.342 106.813 234.349C106.817 234.353 106.82 234.355 106.822 234.357C106.823 234.358 106.824 234.359 106.824 234.359C106.825 234.36 106.825 234.36 108.5 232.504ZM32.7246 141.364C21.9421 120.336 15.1151 90.6591 10.9891 66.048C8.93239 53.7794 7.55758 42.8389 6.69716 34.9665C6.26704 31.0311 5.96569 27.8646 5.77207 25.6846C5.67527 24.5947 5.60541 23.7516 5.55986 23.1824C5.53709 22.8979 5.52039 22.6819 5.50945 22.5377C5.50398 22.4657 5.49994 22.4116 5.4973 22.3759C5.49599 22.3581 5.49502 22.3449 5.49439 22.3363C5.49408 22.332 5.49385 22.3289 5.49371 22.3269C5.49364 22.326 5.49359 22.3254 5.49356 22.3249C5.49354 22.3246 5.49354 22.3246 3 22.5042C0.506462 22.6839 0.506505 22.6845 0.506568 22.6853C0.506618 22.686 0.506703 22.6872 0.506803 22.6886C0.507002 22.6913 0.507287 22.6952 0.507658 22.7003C0.508401 22.7105 0.509489 22.7253 0.510927 22.7448C0.513804 22.7837 0.518083 22.841 0.523805 22.9164C0.535251 23.0671 0.552471 23.2899 0.575797 23.5813C0.622447 24.1642 0.693525 25.0219 0.791676 26.127C0.987967 28.337 1.2926 31.5374 1.72676 35.5098C2.5949 43.4528 3.98187 54.4908 6.05796 66.8746C10.1977 91.5682 17.1207 121.891 28.2754 143.645L32.7246 141.364ZM26.5 41.0039C27.209 43.4013 27.209 43.4013 27.2091 43.4012C27.2094 43.4011 27.2097 43.401 27.2103 43.4009C27.2114 43.4005 27.2133 43.4 27.2158 43.3992C27.2209 43.3977 27.2288 43.3954 27.2395 43.3923C27.2608 43.386 27.2931 43.3765 27.3363 43.3639C27.4227 43.3386 27.5524 43.3007 27.7235 43.2512C28.0658 43.152 28.5735 43.006 29.2316 42.8198C30.5479 42.4472 32.465 41.9137 34.8609 41.2722C39.6538 39.9889 46.3574 38.2746 53.9964 36.5516C69.3252 33.0944 88.2332 29.6464 103.024 29.5038L102.976 24.504C87.6238 24.6521 68.2818 28.2041 52.8963 31.6742C45.1782 33.4149 38.4086 35.1461 33.5676 36.4424C31.1466 37.0906 29.2066 37.6304 27.8699 38.0088C27.2016 38.1979 26.684 38.3468 26.3324 38.4486C26.1566 38.4995 26.0223 38.5387 25.9315 38.5653C25.886 38.5786 25.8515 38.5887 25.828 38.5956C25.8162 38.5991 25.8073 38.6018 25.8011 38.6036C25.798 38.6045 25.7956 38.6052 25.7939 38.6057C25.7931 38.6059 25.7924 38.6061 25.7919 38.6063C25.7914 38.6064 25.791 38.6065 26.5 41.0039ZM103.024 29.5038C118.664 29.353 138.559 32.7992 154.668 36.3307C162.696 38.0906 169.735 39.8605 174.765 41.1902C177.28 41.8549 179.292 42.4092 180.673 42.7967C181.363 42.9905 181.896 43.1426 182.255 43.2458C182.434 43.2975 182.57 43.3369 182.661 43.3633C182.706 43.3764 182.74 43.3864 182.762 43.3929C182.774 43.3962 182.782 43.3986 182.787 43.4001C182.79 43.4009 182.792 43.4015 182.793 43.4018C182.794 43.402 182.794 43.4021 182.794 43.4022C182.794 43.4023 182.794 43.4022 183.5 41.0039C184.206 38.6056 184.205 38.6055 184.205 38.6053C184.204 38.6051 184.203 38.6049 184.203 38.6047C184.201 38.6041 184.198 38.6034 184.195 38.6025C184.189 38.6006 184.179 38.5978 184.167 38.5942C184.142 38.587 184.106 38.5764 184.058 38.5625C183.963 38.5347 183.822 38.4939 183.637 38.4408C183.268 38.3346 182.725 38.1796 182.024 37.9827C180.621 37.589 178.585 37.028 176.043 36.3562C170.961 35.0129 163.851 33.2251 155.738 31.4466C139.566 27.9013 119.211 24.3475 102.976 24.504L103.024 29.5038ZM183.5 41.0039C181.012 40.7559 181.012 40.7558 181.012 40.756C181.012 40.7563 181.012 40.7567 181.012 40.7573C181.012 40.7587 181.012 40.7609 181.012 40.764C181.011 40.7702 181.01 40.7799 181.009 40.793C181.006 40.8193 181.002 40.8594 180.996 40.913C180.985 41.0202 180.968 41.1813 180.945 41.394C180.899 41.8193 180.829 42.4505 180.733 43.2679C180.542 44.9029 180.247 47.282 179.837 50.2471C179.016 56.1786 177.733 64.4473 175.884 73.789C172.173 92.5318 166.228 115.365 157.288 132.339L161.712 134.669C171.001 117.032 177.056 93.6143 180.788 74.76C182.66 65.3032 183.959 56.9366 184.79 50.9324C185.205 47.9297 185.504 45.5159 185.699 43.8498C185.797 43.0168 185.869 42.3706 185.916 41.931C185.94 41.7112 185.958 41.5431 185.97 41.4291C185.975 41.372 185.98 41.3286 185.983 41.299C185.984 41.2841 185.986 41.2728 185.986 41.2649C185.987 41.261 185.987 41.2579 185.987 41.2558C185.987 41.2547 185.987 41.2537 185.988 41.2532C185.988 41.2524 185.988 41.2519 183.5 41.0039ZM157.288 132.339C150.097 145.992 137.489 162.576 126.58 175.837C121.144 182.447 116.161 188.193 112.538 192.286C110.727 194.333 109.257 195.965 108.24 197.084C107.732 197.644 107.337 198.075 107.07 198.366C106.937 198.511 106.835 198.622 106.768 198.695C106.734 198.732 106.708 198.759 106.691 198.778C106.683 198.787 106.677 198.793 106.673 198.798C106.671 198.8 106.669 198.802 106.668 198.803C106.668 198.803 106.667 198.803 106.667 198.804C106.667 198.804 106.667 198.804 108.5 200.504C110.333 202.204 110.333 202.204 110.334 202.203C110.334 202.203 110.335 202.202 110.335 202.202C110.336 202.2 110.338 202.198 110.341 202.196C110.345 202.191 110.352 202.183 110.362 202.173C110.38 202.153 110.407 202.124 110.442 202.086C110.513 202.01 110.617 201.896 110.753 201.748C111.026 201.45 111.427 201.012 111.942 200.446C112.971 199.312 114.456 197.664 116.282 195.6C119.935 191.473 124.958 185.68 130.442 179.014C141.374 165.723 154.266 148.806 161.712 134.669L157.288 132.339ZM108.5 200.504C110.192 198.663 110.192 198.663 110.192 198.663C110.191 198.663 110.191 198.663 110.191 198.662C110.19 198.662 110.188 198.66 110.187 198.658C110.183 198.655 110.177 198.649 110.168 198.642C110.152 198.627 110.127 198.604 110.094 198.573C110.028 198.512 109.928 198.419 109.796 198.296C109.533 198.051 109.144 197.687 108.641 197.212C107.635 196.261 106.178 194.869 104.378 193.108C100.778 189.586 95.8094 184.595 90.3442 178.72C79.3795 166.935 66.546 151.735 58.6779 137.776L54.3221 140.231C62.4909 154.724 75.6574 170.274 86.6835 182.126C92.2136 188.07 97.2386 193.119 100.882 196.683C102.704 198.465 104.182 199.877 105.206 200.845C105.718 201.329 106.117 201.702 106.388 201.955C106.524 202.082 106.628 202.178 106.699 202.243C106.734 202.276 106.761 202.301 106.779 202.318C106.788 202.326 106.795 202.333 106.8 202.337C106.803 202.34 106.805 202.341 106.806 202.342C106.807 202.343 106.807 202.344 106.808 202.344C106.808 202.344 106.808 202.345 108.5 200.504ZM58.6779 137.776C49.2113 120.982 41.7756 96.759 36.6935 76.5654C34.1608 66.5018 32.2273 57.4997 30.9271 51.0144C30.2772 47.7724 29.7859 45.1611 29.4575 43.3627C29.2933 42.4635 29.1699 41.7676 29.0877 41.2978C29.0466 41.0629 29.0158 40.8846 28.9954 40.7656C28.9852 40.7061 28.9776 40.6615 28.9726 40.632C28.9701 40.6173 28.9683 40.6064 28.9671 40.5993C28.9665 40.5958 28.966 40.5932 28.9658 40.5916C28.9656 40.5908 28.9656 40.5903 28.9655 40.5899C28.9654 40.5897 28.9654 40.5897 26.5 41.0039C24.0346 41.4181 24.0346 41.4186 24.0348 41.4194C24.0349 41.4199 24.035 41.4209 24.0352 41.422C24.0356 41.4243 24.0361 41.4276 24.0369 41.4318C24.0383 41.4402 24.0403 41.4524 24.0431 41.4685C24.0485 41.5007 24.0566 41.548 24.0673 41.6103C24.0886 41.7348 24.1204 41.9188 24.1625 42.1595C24.2467 42.6409 24.3723 43.3489 24.5389 44.2608C24.8719 46.0846 25.3686 48.7242 26.0247 51.9972C27.3367 58.5417 29.2877 67.6255 31.8447 77.7857C36.942 98.0399 44.5063 122.817 54.3221 140.231L58.6779 137.776Z" fill="black"/>
</svg>
