<svg width="128" height="85" viewBox="0 0 128 85" fill="none" xmlns="http://www.w3.org/2000/svg">
<rect x="8.98022" y="7.65006" width="110" height="61" rx="3.5" transform="rotate(0.889641 8.98022 7.65006)" fill="white" stroke="black" stroke-width="3"/>
<path d="M46.095 40.1289L80.5991 39.9206" stroke="black" stroke-width="3"/>
<path d="M46.095 48.4648L80.5991 48.2565" stroke="black" stroke-width="3"/>
<path d="M46.095 56.7969L80.5991 56.5885" stroke="black" stroke-width="3"/>
<rect x="97.5" y="13.5" width="13" height="15" fill="white" stroke="black" stroke-width="3"/>
<path d="M89 20.5C89 25.7932 84.9252 30 80 30C75.0749 30 71 25.7932 71 20.5C71 15.2068 75.0749 11 80 11C84.9252 11 89 15.2068 89 20.5Z" fill="white" stroke="black" stroke-width="2"/>
<path d="M85 20.5C85 23.6144 82.6876 26 80 26C77.3125 26 75 23.6144 75 20.5C75 17.3856 77.3125 15 80 15C82.6876 15 85 17.3856 85 20.5Z" fill="white" stroke="black" stroke-width="2"/>
<path d="M57 19.9033C57.352 19.6368 57.6209 19.4061 58.0177 19.2304C58.213 19.1438 58.4418 19.1734 58.619 19.0814C58.9634 18.9025 59.3219 18.7463 59.6828 18.5864C60.2862 18.3191 60.8899 18.0865 61.5793 18.0865C62.1939 18.0865 62.9044 18 63.5683 18C64.5528 18 65.3702 18.1658 66.2974 18.4326C67.215 18.6966 68.1641 18.8863 69.0676 19.1679C69.5742 19.3258 70.0736 19.5164 70.5786 19.6629C71.0287 19.7936 71.5607 19.7069 71.9868 19.884C72.3828 20.0486 73.0284 19.9898 73.4619 19.9898C73.9878 19.9898 74.5137 19.9898 75.0397 19.9898C75.6721 19.9898 76.2914 19.5399 76.7768 19.2112C77.0472 19.0281 77.2886 18.6417 77.5837 18.5191C77.7272 18.4595 77.9357 18.2933 78 18.173" stroke="black" stroke-width="2" stroke-linecap="round"/>
<path d="M57 21.9516C57.352 21.8184 57.6209 21.7031 58.0177 21.6152C58.213 21.5719 58.4418 21.5867 58.619 21.5407C58.9634 21.4512 59.3219 21.3731 59.6828 21.2932C60.2862 21.1596 60.8899 21.0433 61.5793 21.0433C62.1939 21.0433 62.9044 21 63.5683 21C64.5528 21 65.3702 21.0829 66.2974 21.2163C67.215 21.3483 68.1641 21.4431 69.0676 21.584C69.5742 21.6629 70.0736 21.7582 70.5786 21.8315C71.0287 21.8968 71.5607 21.8535 71.9868 21.942C72.3828 22.0243 73.0284 21.9949 73.4619 21.9949C73.9878 21.9949 74.5137 21.9949 75.0397 21.9949C75.6721 21.9949 76.2914 21.7699 76.7768 21.6056C77.0472 21.514 77.2886 21.3209 77.5837 21.2595C77.7272 21.2297 77.9357 21.1466 78 21.0865" stroke="black" stroke-width="2" stroke-linecap="round"/>
<path d="M57 24.9033C57.352 24.6368 57.6209 24.4061 58.0177 24.2304C58.213 24.1438 58.4418 24.1734 58.619 24.0814C58.9634 23.9025 59.3219 23.7463 59.6828 23.5864C60.2862 23.3191 60.8899 23.0865 61.5793 23.0865C62.1939 23.0865 62.9044 23 63.5683 23C64.5528 23 65.3702 23.1658 66.2974 23.4326C67.215 23.6966 68.1641 23.8863 69.0676 24.1679C69.5742 24.3258 70.0736 24.5164 70.5786 24.6629C71.0287 24.7936 71.5607 24.7069 71.9868 24.884C72.3828 25.0486 73.0284 24.9898 73.4619 24.9898C73.9878 24.9898 74.5137 24.9898 75.0397 24.9898C75.6721 24.9898 76.2914 24.5399 76.7768 24.2112C77.0472 24.0281 77.2886 23.6417 77.5837 23.5191C77.7272 23.4595 77.9357 23.2933 78 23.173" stroke="black" stroke-width="2" stroke-linecap="round"/>
<g filter="url(#filter0_d_268_22)">
<rect width="113.157" height="63.7409" rx="5" transform="matrix(0.992398 0.123069 -0.120855 0.99267 11.7034 0)" fill="white"/>
<rect x="1.30731" y="1.67361" width="110.157" height="60.7409" rx="3.5" transform="matrix(0.992398 0.123069 -0.120855 0.99267 11.9156 -0.148623)" stroke="black" stroke-width="3"/>
</g>
<path d="M46.7257 37.7168L80.9974 41.757" stroke="black" stroke-width="3"/>
<path d="M45.7188 45.9883L79.9904 50.0285" stroke="black" stroke-width="3"/>
<path d="M44.7117 54.2598L78.9834 58.3" stroke="black" stroke-width="3"/>
<rect x="1.30731" y="1.67361" width="12.9669" height="15.2117" transform="matrix(0.992398 0.123069 -0.120855 0.99267 99.5069 15.6541)" fill="white" stroke="black" stroke-width="3"/>
<path d="M91.775 23.339C91.1355 28.5915 86.5582 32.2716 81.6289 31.6603C76.6995 31.049 73.1412 26.36 73.7806 21.1075C74.4201 15.855 78.9974 12.1749 83.9267 12.7862C88.8561 13.3975 92.4145 18.0866 91.775 23.339Z" fill="white" stroke="black" stroke-width="2"/>
<path d="M87.6414 22.8274C87.2797 25.7981 84.7621 27.815 82.1368 27.4895C79.5115 27.1639 77.5526 24.5918 77.9143 21.6211C78.2759 18.6504 80.7936 16.6335 83.4189 16.9591C86.0441 17.2847 88.0031 19.8567 87.6414 22.8274Z" fill="white" stroke="black" stroke-width="2"/>
<path d="M60.4802 18.6847C60.8375 18.541 61.1129 18.4123 61.5053 18.3369C61.6985 18.2998 61.9136 18.3473 62.09 18.3042C62.4328 18.2205 62.7871 18.1542 63.144 18.0856C63.7407 17.9709 64.3347 17.8804 64.9906 17.9618C65.5753 18.0343 66.2587 18.058 66.8903 18.1363C67.8269 18.2524 68.5905 18.4641 69.45 18.759C70.3007 19.0509 71.1876 19.2947 72.0233 19.5972C72.4919 19.7667 72.9509 19.9582 73.419 20.1196C73.8362 20.2636 74.3496 20.2661 74.74 20.4395C75.1029 20.6007 75.722 20.6359 76.1344 20.6871C76.6348 20.7491 77.1352 20.8112 77.6355 20.8732C78.2372 20.9478 78.8645 20.7081 79.3542 20.5368C79.6269 20.4414 79.8892 20.2013 80.1804 20.1508C80.3219 20.1263 80.5344 20.0353 80.6058 19.9593" stroke="black" stroke-width="2" stroke-linecap="round"/>
<path d="M60.1416 21.4659C60.499 21.3222 60.7744 21.1935 61.1668 21.1181C61.36 21.081 61.5751 21.1286 61.7515 21.0855C62.0943 21.0017 62.4486 20.9354 62.8055 20.8668C63.4022 20.7522 63.9962 20.6617 64.6521 20.743C65.2368 20.8155 65.9202 20.8392 66.5518 20.9175C67.4884 21.0337 68.252 21.2454 69.1115 21.5403C69.9622 21.8321 70.8491 22.076 71.6848 22.3784C72.1534 22.548 72.6124 22.7394 73.0805 22.9009C73.4977 23.0448 74.0111 23.0474 74.4015 23.2208C74.7644 23.3819 75.3835 23.4172 75.7959 23.4683C76.2963 23.5304 76.7967 23.5924 77.297 23.6545C77.8987 23.7291 78.526 23.4894 79.0157 23.3181C79.2884 23.2227 79.5507 22.9825 79.8419 22.932C79.9834 22.9075 80.1959 22.8166 80.2673 22.7405" stroke="black" stroke-width="2" stroke-linecap="round"/>
<path d="M59.8071 24.2136C60.1757 23.9772 60.4609 23.7683 60.8607 23.6318C61.0575 23.5646 61.2714 23.6225 61.4517 23.5474C61.8021 23.4014 62.1629 23.2808 62.5267 23.1566C63.1346 22.949 63.7385 22.7777 64.3944 22.859C64.9791 22.9315 65.6661 22.9251 66.2977 23.0035C67.2343 23.1196 67.991 23.389 68.8392 23.7766C69.6787 24.1602 70.5575 24.47 71.3814 24.8704C71.8433 25.0949 72.2942 25.3525 72.7561 25.565C73.1677 25.7543 73.6849 25.7267 74.0678 25.9617C74.4236 26.1801 75.0453 26.1949 75.4577 26.246C75.958 26.3081 76.4584 26.3701 76.9588 26.4322C77.5604 26.5068 78.2068 26.1106 78.7104 25.8251C78.9908 25.666 79.2695 25.2916 79.5659 25.1984C79.7099 25.1532 79.9295 25.0045 80.0059 24.8866" stroke="black" stroke-width="2" stroke-linecap="round"/>
<g filter="url(#filter1_d_268_22)">
<rect width="113.148" height="63.7459" rx="5" transform="matrix(0.997517 -0.0704239 0.0689588 0.99762 4.28241 10.623)" fill="white"/>
<rect x="1.59971" y="1.39079" width="110.148" height="60.7459" rx="3.5" transform="matrix(0.997517 -0.0704239 0.0689588 0.99762 4.19047 10.739)" stroke="black" stroke-width="3"/>
</g>
<path d="M45.8158 41.0742L80.193 38.0833" stroke="black" stroke-width="3" stroke-linecap="round"/>
<path d="M46.4756 49.3828L80.8528 46.3919" stroke="black" stroke-width="3" stroke-linecap="round"/>
<path d="M47.1358 57.6875L81.5129 54.6966" stroke="black" stroke-width="3" stroke-linecap="round"/>
<rect x="1.6139" y="1.3743" width="12.9657" height="15.2131" rx="3.5" transform="matrix(0.996742 -0.0806583 0.0791944 0.996859 92.8475 9.08371)" fill="white" stroke="#020202" stroke-width="3"/>
<path d="M87.085 17.8573C87.5041 23.1325 83.7526 27.6656 78.8022 28.0662C73.8518 28.4668 69.4326 24.5949 69.0135 19.3197C68.5944 14.0445 72.3459 9.51138 77.2963 9.11079C82.2467 8.7102 86.6659 12.5821 87.085 17.8573Z" fill="white" stroke="#C74F54" stroke-width="2"/>
<path d="M82.9335 18.1948C83.1706 21.1785 81.1056 23.6646 78.4692 23.878C75.8328 24.0913 73.4018 21.969 73.1648 18.9853C72.9277 16.0017 74.9927 13.5155 77.6291 13.3022C80.2654 13.0889 82.6965 15.2112 82.9335 18.1948Z" fill="white" stroke="#C74F54" stroke-width="2"/>
<path d="M55.5016 19.6415C55.8231 19.4283 56.0673 19.2464 56.4366 19.093C56.6185 19.0175 56.8387 19.0204 57.0029 18.9425C57.3221 18.7909 57.6559 18.6541 57.9919 18.5145C58.5536 18.2812 59.1175 18.0721 59.7762 18.0188C60.3634 17.9713 61.0376 17.856 61.6719 17.8046C62.6125 17.7285 63.4028 17.7811 64.3034 17.8957C65.1948 18.0091 66.1122 18.0682 66.9911 18.195C67.4839 18.2661 67.9716 18.3606 68.4623 18.4239C68.8996 18.4803 69.4031 18.3786 69.8201 18.4694C70.2076 18.5537 70.8212 18.4627 71.2353 18.4291C71.7378 18.3885 72.2404 18.3478 72.7429 18.3072C73.3471 18.2583 73.9139 17.8962 74.3595 17.6291C74.6077 17.4804 74.8169 17.1919 75.0921 17.0835C75.2258 17.0307 75.4159 16.8986 75.4706 16.8096" stroke="#C74F54" stroke-width="2" stroke-linecap="round"/>
<path d="M55.7235 22.4345C56.045 22.2213 56.2892 22.0394 56.6585 21.886C56.8404 21.8104 57.0606 21.8134 57.2248 21.7354C57.544 21.5838 57.8778 21.4471 58.2139 21.3075C58.7755 21.0742 59.3395 20.8651 59.9982 20.8118C60.5854 20.7643 61.2595 20.6489 61.8938 20.5976C62.8344 20.5215 63.6247 20.5741 64.5254 20.6887C65.4168 20.8021 66.3341 20.8612 67.213 20.988C67.7058 21.0591 68.1936 21.1535 68.6842 21.2168C69.1216 21.2732 69.6251 21.1716 70.042 21.2623C70.4295 21.3466 71.0431 21.2556 71.4572 21.2221C71.9598 21.1815 72.4623 21.1408 72.9648 21.1001C73.569 21.0512 74.1358 20.6892 74.5814 20.4221C74.8296 20.2734 75.0388 19.9849 75.314 19.8764C75.4477 19.8237 75.6378 19.6915 75.6926 19.6026" stroke="#C74F54" stroke-width="2" stroke-linecap="round"/>
<path d="M55.9427 25.1947C56.2568 24.8885 56.4946 24.626 56.859 24.4113C57.0385 24.3055 57.2596 24.3188 57.4212 24.2087C57.7354 23.9946 58.0649 23.8033 58.3965 23.6079C58.9507 23.2813 59.5082 22.991 60.1669 22.9377C60.7541 22.8902 61.4259 22.7446 62.0602 22.6933C63.0008 22.6172 63.7957 22.7276 64.7037 22.9354C65.6025 23.141 66.5251 23.2663 67.4118 23.4914C67.909 23.6177 68.402 23.7787 68.8967 23.8932C69.3377 23.9952 69.8388 23.8633 70.2606 24.0158C70.6527 24.1576 71.2647 24.0461 71.6788 24.0126C72.1813 23.9719 72.6839 23.9312 73.1864 23.8906C73.7906 23.8417 74.3449 23.3225 74.7814 22.9407C75.0245 22.728 75.223 22.3047 75.4948 22.1534C75.6269 22.0798 75.8123 21.8897 75.8637 21.7587" stroke="#C74F54" stroke-width="2" stroke-linecap="round"/>
<path fill-rule="evenodd" clip-rule="evenodd" d="M97.0407 14.1896C97.0407 14.1896 99.3529 13.3132 100.906 13.2178C102.527 13.1182 105.029 13.7638 105.029 13.7638C105.029 13.7638 105.036 16.8594 104.342 18.5129C103.648 20.1665 101.6 22.1934 101.6 22.1934C101.6 22.1934 99.1726 20.2216 98.3654 18.8314C97.4192 17.2018 97.0407 14.1896 97.0407 14.1896ZM100.957 14.1576C99.7796 14.2317 97.9973 14.8651 97.9973 14.8651C97.9973 14.8651 98.5491 17.3408 99.3738 18.6402C100.06 19.721 101.533 20.9403 101.533 20.9403C101.533 20.9403 102.872 19.3292 103.386 18.2104C104.026 16.8171 104.13 14.5382 104.13 14.5382C104.13 14.5382 102.201 14.0792 100.957 14.1576Z" fill="#E5BF99"/>
<path d="M97.9973 14.8651C97.9973 14.8651 99.7796 14.2317 100.957 14.1576C102.201 14.0792 104.13 14.5382 104.13 14.5382C104.13 14.5382 104.026 16.8171 103.386 18.2104C102.872 19.3292 101.533 20.9403 101.533 20.9403C101.533 20.9403 100.06 19.721 99.3738 18.6402C98.5491 17.3408 97.9973 14.8651 97.9973 14.8651Z" fill="#F5EADC"/>
<path d="M97.0407 14.1896L96.8635 13.722L96.4956 13.8615L96.5446 14.2519L97.0407 14.1896ZM100.906 13.2178L100.937 13.7168L100.906 13.2178ZM105.029 13.7638L105.529 13.7627L105.528 13.3763L105.154 13.2797L105.029 13.7638ZM101.6 22.1934L101.285 22.5815L101.633 22.8643L101.952 22.5488L101.6 22.1934ZM98.3654 18.8314L98.7978 18.5804L98.3654 18.8314ZM97.9973 14.8651L97.8299 14.3939L97.4131 14.5421L97.5093 14.9738L97.9973 14.8651ZM100.957 14.1576L100.988 14.6566L100.957 14.1576ZM104.13 14.5382L104.63 14.5612L104.649 14.1476L104.246 14.0518L104.13 14.5382ZM103.386 18.2104L103.84 18.4191L103.386 18.2104ZM101.533 20.9403L101.215 21.3255L101.599 21.6436L101.918 21.2598L101.533 20.9403ZM99.3738 18.6402L98.9516 18.9081L98.9516 18.9081L99.3738 18.6402ZM97.0407 14.1896C97.2179 14.6571 97.2179 14.6571 97.2178 14.6571C97.2179 14.6571 97.2178 14.6571 97.2178 14.6571C97.2179 14.6571 97.2179 14.6571 97.218 14.6571C97.2182 14.657 97.2185 14.6569 97.2189 14.6567C97.2198 14.6564 97.2212 14.6559 97.2232 14.6551C97.2271 14.6536 97.2332 14.6513 97.2414 14.6483C97.2577 14.6422 97.2823 14.6332 97.3143 14.6215C97.3784 14.5981 97.4723 14.5644 97.5902 14.5235C97.8261 14.4416 98.1566 14.3315 98.5343 14.2185C99.3002 13.9894 100.221 13.7608 100.937 13.7168L100.876 12.7187C100.039 12.7701 99.0263 13.0275 98.2477 13.2604C97.8531 13.3785 97.5085 13.4933 97.2623 13.5788C97.1391 13.6215 97.0403 13.657 96.9719 13.6819C96.9376 13.6944 96.911 13.7043 96.8927 13.7111C96.8835 13.7145 96.8765 13.7171 96.8716 13.719C96.8691 13.7199 96.8672 13.7206 96.8659 13.7211C96.8652 13.7214 96.8647 13.7216 96.8643 13.7217C96.8641 13.7218 96.8639 13.7219 96.8638 13.7219C96.8637 13.7219 96.8636 13.722 96.8636 13.722C96.8635 13.722 96.8635 13.722 97.0407 14.1896ZM100.937 13.7168C101.685 13.6709 102.666 13.7978 103.487 13.9456C103.892 14.0184 104.248 14.0944 104.502 14.1521C104.63 14.1809 104.731 14.2052 104.8 14.222C104.835 14.2305 104.861 14.2371 104.879 14.2415C104.888 14.2437 104.894 14.2454 104.899 14.2465C104.901 14.2471 104.902 14.2474 104.903 14.2477C104.904 14.2478 104.904 14.2479 104.904 14.2479C104.904 14.248 104.904 14.248 104.904 14.248C104.905 14.248 104.904 14.248 104.904 14.248C104.904 14.248 104.904 14.248 105.029 13.7638C105.154 13.2797 105.154 13.2797 105.154 13.2797C105.154 13.2797 105.154 13.2796 105.154 13.2796C105.154 13.2796 105.154 13.2795 105.153 13.2795C105.153 13.2794 105.152 13.2792 105.152 13.279C105.15 13.2787 105.148 13.2781 105.146 13.2775C105.14 13.2761 105.133 13.2742 105.123 13.2717C105.103 13.2667 105.074 13.2595 105.037 13.2505C104.963 13.2325 104.857 13.207 104.724 13.1769C104.458 13.1167 104.087 13.0375 103.664 12.9614C102.829 12.8112 101.749 12.665 100.876 12.7187L100.937 13.7168ZM105.029 13.7638C104.529 13.765 104.529 13.7649 104.529 13.7649C104.529 13.7649 104.529 13.7649 104.529 13.7649C104.529 13.7649 104.529 13.765 104.529 13.7651C104.529 13.7653 104.529 13.7657 104.529 13.7663C104.529 13.7675 104.529 13.7694 104.529 13.7721C104.529 13.7774 104.529 13.7855 104.529 13.7964C104.529 13.8182 104.529 13.8509 104.528 13.8934C104.527 13.9785 104.525 14.1027 104.52 14.2572C104.51 14.5666 104.489 14.9959 104.448 15.4751C104.363 16.4507 104.196 17.5701 103.881 18.3194L104.803 18.7064C105.183 17.8022 105.359 16.5471 105.444 15.5615C105.488 15.0601 105.509 14.6121 105.519 14.2895C105.525 14.128 105.527 13.9974 105.528 13.9067C105.529 13.8613 105.529 13.8259 105.529 13.8016C105.529 13.7894 105.529 13.78 105.529 13.7734C105.529 13.7702 105.529 13.7676 105.529 13.7659C105.529 13.765 105.529 13.7642 105.529 13.7637C105.529 13.7635 105.529 13.7632 105.529 13.7631C105.529 13.763 105.529 13.7629 105.529 13.7629C105.529 13.7628 105.529 13.7627 105.029 13.7638ZM103.881 18.3194C103.565 19.0727 102.921 19.9447 102.328 20.6518C102.036 20.9998 101.765 21.2977 101.567 21.5085C101.468 21.6137 101.387 21.697 101.332 21.7535C101.304 21.7818 101.283 21.8033 101.269 21.8176C101.262 21.8248 101.256 21.8301 101.253 21.8335C101.251 21.8352 101.25 21.8365 101.249 21.8372C101.249 21.8376 101.249 21.8379 101.249 21.838C101.248 21.8381 101.248 21.8381 101.248 21.8381C101.248 21.8381 101.248 21.8381 101.248 21.8381C101.248 21.8381 101.249 21.838 101.6 22.1934C101.952 22.5488 101.952 22.5487 101.952 22.5487C101.952 22.5486 101.952 22.5486 101.952 22.5485C101.952 22.5484 101.952 22.5483 101.953 22.5481C101.953 22.5477 101.954 22.5472 101.954 22.5466C101.955 22.5454 101.957 22.5437 101.959 22.5416C101.964 22.5372 101.97 22.531 101.978 22.5229C101.994 22.5066 102.017 22.483 102.047 22.4526C102.107 22.3919 102.192 22.3038 102.295 22.1932C102.503 21.9723 102.787 21.6602 103.094 21.2947C103.698 20.5749 104.425 19.6067 104.803 18.7064L103.881 18.3194ZM101.6 22.1934C101.915 21.8053 101.915 21.8053 101.916 21.8053C101.915 21.8053 101.916 21.8053 101.915 21.8053C101.915 21.8053 101.915 21.8052 101.915 21.8052C101.915 21.805 101.915 21.8047 101.914 21.8043C101.913 21.8035 101.912 21.8022 101.91 21.8005C101.905 21.7971 101.899 21.7918 101.89 21.7847C101.873 21.7706 101.848 21.7494 101.814 21.7219C101.748 21.6667 101.652 21.5859 101.534 21.4845C101.298 21.2815 100.975 20.9967 100.628 20.6698C99.92 20.0025 99.161 19.2058 98.7978 18.5804L97.933 19.0825C98.377 19.8472 99.2355 20.7315 99.9427 21.3977C100.303 21.7375 100.638 22.0326 100.882 22.2427C101.005 22.3478 101.105 22.432 101.174 22.4901C101.209 22.5191 101.236 22.5417 101.255 22.5571C101.265 22.5649 101.272 22.5708 101.277 22.5749C101.279 22.5769 101.281 22.5785 101.283 22.5796C101.283 22.5802 101.284 22.5806 101.284 22.5809C101.284 22.5811 101.285 22.5812 101.285 22.5813C101.285 22.5814 101.285 22.5814 101.285 22.5814C101.285 22.5815 101.285 22.5815 101.6 22.1934ZM98.7978 18.5804C98.3656 17.836 98.0474 16.7394 97.8363 15.7908C97.7324 15.3238 97.6572 14.906 97.6081 14.6051C97.5836 14.4548 97.5656 14.3342 97.5538 14.2516C97.5479 14.2103 97.5436 14.1786 97.5408 14.1575C97.5394 14.147 97.5383 14.1391 97.5377 14.134C97.5373 14.1314 97.5371 14.1296 97.537 14.1285C97.5369 14.1279 97.5368 14.1275 97.5368 14.1273C97.5368 14.1272 97.5368 14.1271 97.5368 14.1271C97.5368 14.1271 97.5368 14.1271 97.5368 14.1271C97.5368 14.1272 97.5368 14.1272 97.0407 14.1896C96.5446 14.2519 96.5446 14.252 96.5446 14.252C96.5446 14.2521 96.5446 14.2522 96.5446 14.2523C96.5447 14.2524 96.5447 14.2526 96.5447 14.2529C96.5448 14.2534 96.5449 14.2541 96.545 14.255C96.5452 14.2568 96.5455 14.2593 96.546 14.2625C96.5468 14.2689 96.548 14.2781 96.5496 14.29C96.5528 14.3139 96.5575 14.3485 96.5638 14.3927C96.5764 14.4813 96.5954 14.6087 96.6212 14.7663C96.6726 15.0811 96.7512 15.5182 96.8601 16.008C97.0748 16.9729 97.419 18.1973 97.933 19.0825L98.7978 18.5804ZM97.9973 14.8651C98.1647 15.3362 98.1647 15.3362 98.1647 15.3362C98.1647 15.3362 98.1647 15.3362 98.1647 15.3362C98.1647 15.3362 98.1647 15.3362 98.1648 15.3362C98.1649 15.3362 98.1651 15.3361 98.1654 15.336C98.166 15.3357 98.1671 15.3354 98.1686 15.3348C98.1716 15.3338 98.1762 15.3322 98.1824 15.33C98.1948 15.3257 98.2136 15.3192 98.2381 15.3108C98.2871 15.294 98.3591 15.2697 98.4493 15.2403C98.6301 15.1813 98.8831 15.1019 99.1716 15.0203C99.7587 14.8542 100.456 14.6901 100.988 14.6566L100.925 13.6586C100.28 13.6992 99.4978 13.8888 98.8995 14.058C98.5954 14.144 98.3293 14.2275 98.1391 14.2896C98.0438 14.3207 97.9674 14.3465 97.9143 14.3646C97.8878 14.3737 97.8671 14.3809 97.8528 14.3859C97.8457 14.3884 97.8402 14.3903 97.8363 14.3917C97.8344 14.3923 97.8329 14.3929 97.8318 14.3932C97.8313 14.3934 97.8309 14.3936 97.8305 14.3937C97.8304 14.3938 97.8302 14.3938 97.8301 14.3938C97.8301 14.3939 97.83 14.3939 97.83 14.3939C97.8299 14.3939 97.8299 14.3939 97.9973 14.8651ZM100.988 14.6566C101.551 14.6211 102.297 14.708 102.929 14.8119C103.239 14.8629 103.512 14.9165 103.707 14.9572C103.805 14.9775 103.883 14.9946 103.935 15.0065C103.962 15.0124 103.982 15.0171 103.996 15.0202C104.002 15.0218 104.007 15.0229 104.011 15.0237C104.012 15.0241 104.013 15.0243 104.014 15.0245C104.014 15.0246 104.015 15.0246 104.015 15.0247C104.015 15.0247 104.015 15.0247 104.015 15.0247C104.015 15.0247 104.015 15.0247 104.015 15.0247C104.015 15.0247 104.015 15.0247 104.13 14.5382C104.246 14.0518 104.246 14.0518 104.246 14.0518C104.246 14.0518 104.246 14.0518 104.246 14.0517C104.246 14.0517 104.246 14.0517 104.245 14.0516C104.245 14.0516 104.245 14.0514 104.244 14.0513C104.243 14.051 104.241 14.0506 104.239 14.0502C104.235 14.0492 104.229 14.0478 104.221 14.046C104.206 14.0424 104.183 14.0373 104.155 14.0308C104.097 14.0179 104.015 13.9998 103.912 13.9783C103.706 13.9354 103.419 13.879 103.091 13.8251C102.447 13.7191 101.607 13.6156 100.925 13.6586L100.988 14.6566ZM104.13 14.5382C103.631 14.5153 103.631 14.5152 103.631 14.5152C103.631 14.5152 103.631 14.5152 103.631 14.5152C103.631 14.5151 103.631 14.5152 103.631 14.5152C103.631 14.5153 103.631 14.5156 103.631 14.516C103.631 14.5167 103.631 14.518 103.631 14.5199C103.631 14.5235 103.63 14.5293 103.63 14.5371C103.629 14.5527 103.628 14.5764 103.626 14.6073C103.622 14.6693 103.615 14.7602 103.606 14.8742C103.587 15.1023 103.555 15.4209 103.503 15.7812C103.399 16.5139 103.22 17.3731 102.932 18.0018L103.84 18.4191C104.191 17.6545 104.385 16.6776 104.493 15.9225C104.548 15.5389 104.582 15.2007 104.602 14.958C104.613 14.8365 104.619 14.7386 104.624 14.6704C104.626 14.6363 104.627 14.6097 104.628 14.5912C104.629 14.582 104.629 14.5748 104.629 14.5698C104.63 14.5672 104.63 14.5652 104.63 14.5638C104.63 14.5631 104.63 14.5625 104.63 14.5621C104.63 14.5619 104.63 14.5617 104.63 14.5615C104.63 14.5614 104.63 14.5613 104.63 14.5613C104.63 14.5612 104.63 14.5612 104.13 14.5382ZM102.932 18.0018C102.697 18.5115 102.261 19.1591 101.864 19.6987C101.669 19.9641 101.49 20.1955 101.359 20.3606C101.293 20.443 101.24 20.5086 101.204 20.5534C101.186 20.5758 101.172 20.5929 101.162 20.6043C101.158 20.61 101.154 20.6143 101.152 20.617C101.151 20.6184 101.15 20.6194 101.149 20.62C101.149 20.6203 101.149 20.6206 101.149 20.6207C101.149 20.6207 101.149 20.6208 101.149 20.6208C101.149 20.6208 101.149 20.6208 101.149 20.6208C101.149 20.6208 101.149 20.6207 101.533 20.9403C101.918 21.2598 101.918 21.2598 101.918 21.2598C101.918 21.2597 101.918 21.2597 101.918 21.2596C101.918 21.2596 101.918 21.2594 101.918 21.2593C101.919 21.259 101.919 21.2587 101.919 21.2582C101.92 21.2573 101.921 21.2559 101.923 21.2542C101.925 21.2508 101.93 21.2459 101.935 21.2395C101.945 21.2268 101.96 21.2082 101.98 21.1844C102.019 21.1367 102.074 21.0677 102.143 20.9816C102.279 20.8096 102.466 20.5683 102.67 20.291C103.071 19.7454 103.561 19.0281 103.84 18.4191L102.932 18.0018ZM101.533 20.9403C101.852 20.555 101.852 20.5551 101.852 20.5551C101.852 20.5551 101.852 20.5551 101.852 20.5551C101.852 20.5551 101.852 20.5551 101.852 20.5551C101.852 20.555 101.852 20.5549 101.852 20.5547C101.851 20.5543 101.85 20.5535 101.849 20.5526C101.847 20.5506 101.843 20.5475 101.838 20.5432C101.828 20.5348 101.813 20.522 101.793 20.5051C101.753 20.4713 101.695 20.4213 101.623 20.3577C101.479 20.2305 101.279 20.0497 101.059 19.8364C100.611 19.4027 100.106 18.8611 99.7959 18.3723L98.9516 18.9081C99.3273 19.5002 99.9023 20.1085 100.363 20.5547C100.597 20.7813 100.809 20.9729 100.962 21.108C101.039 21.1757 101.101 21.2294 101.145 21.2665C101.166 21.2851 101.184 21.2995 101.195 21.3094C101.201 21.3144 101.206 21.3183 101.209 21.321C101.211 21.3223 101.212 21.3234 101.213 21.3241C101.213 21.3245 101.214 21.3248 101.214 21.3251C101.214 21.3252 101.214 21.3253 101.215 21.3254C101.215 21.3254 101.215 21.3254 101.215 21.3255C101.215 21.3255 101.215 21.3255 101.533 20.9403ZM99.7959 18.3723C99.4217 17.7826 99.0933 16.8934 98.8541 16.118C98.7365 15.7368 98.6439 15.3948 98.5808 15.1482C98.5493 15.0251 98.5252 14.9261 98.5091 14.8583C98.501 14.8245 98.495 14.7984 98.491 14.7811C98.489 14.7725 98.4875 14.766 98.4866 14.7618C98.4861 14.7597 98.4858 14.7582 98.4856 14.7573C98.4855 14.7568 98.4854 14.7565 98.4854 14.7564C98.4853 14.7563 98.4853 14.7562 98.4853 14.7562C98.4853 14.7562 98.4853 14.7562 98.4853 14.7562C98.4853 14.7563 98.4853 14.7563 97.9973 14.8651C97.5093 14.9738 97.5093 14.9739 97.5093 14.974C97.5093 14.974 97.5093 14.9741 97.5094 14.9742C97.5094 14.9743 97.5094 14.9745 97.5095 14.9747C97.5096 14.9751 97.5097 14.9757 97.5099 14.9764C97.5102 14.9779 97.5107 14.98 97.5113 14.9826C97.5125 14.9879 97.5142 14.9955 97.5164 15.0052C97.5209 15.0248 97.5276 15.0533 97.5362 15.0896C97.5535 15.1624 97.579 15.267 97.612 15.3962C97.6782 15.6544 97.7751 16.0126 97.8985 16.4127C98.1414 17.2 98.5012 18.1985 98.9516 18.9081L99.7959 18.3723Z" fill="black"/>
<defs>
<filter id="filter0_d_268_22" x="0.567108" y="0.576172" width="126.866" height="84.0469" filterUnits="userSpaceOnUse" color-interpolation-filters="sRGB">
<feFlood flood-opacity="0" result="BackgroundImageFix"/>
<feColorMatrix in="SourceAlpha" type="matrix" values="0 0 0 0 0 0 0 0 0 0 0 0 0 0 0 0 0 0 127 0" result="hardAlpha"/>
<feOffset dy="4"/>
<feGaussianBlur stdDeviation="2"/>
<feComposite in2="hardAlpha" operator="out"/>
<feColorMatrix type="matrix" values="0 0 0 0 0 0 0 0 0 0 0 0 0 0 0 0 0 0 0.25 0"/>
<feBlend mode="normal" in2="BackgroundImageFix" result="effect1_dropShadow_268_22"/>
<feBlend mode="normal" in="SourceGraphic" in2="effect1_dropShadow_268_22" result="shape"/>
</filter>
<filter id="filter1_d_268_22" x="0.615112" y="2.99414" width="124.597" height="78.8828" filterUnits="userSpaceOnUse" color-interpolation-filters="sRGB">
<feFlood flood-opacity="0" result="BackgroundImageFix"/>
<feColorMatrix in="SourceAlpha" type="matrix" values="0 0 0 0 0 0 0 0 0 0 0 0 0 0 0 0 0 0 127 0" result="hardAlpha"/>
<feOffset dy="4"/>
<feGaussianBlur stdDeviation="2"/>
<feComposite in2="hardAlpha" operator="out"/>
<feColorMatrix type="matrix" values="0 0 0 0 0 0 0 0 0 0 0 0 0 0 0 0 0 0 0.25 0"/>
<feBlend mode="normal" in2="BackgroundImageFix" result="effect1_dropShadow_268_22"/>
<feBlend mode="normal" in="SourceGraphic" in2="effect1_dropShadow_268_22" result="shape"/>
</filter>
</defs>
</svg>
