<svg width="184" height="180" viewBox="0 0 184 180" fill="none" xmlns="http://www.w3.org/2000/svg">
<g filter="url(#filter0_d_271_62)">
<path fill-rule="evenodd" clip-rule="evenodd" d="M8.01379 47.7049C5.94609 50.4573 6.00013 55.6491 6.00013 55.6491L7.00683 161.406C7.00683 161.406 7.37169 165.969 9.18845 167.86C11.5411 170.31 15.9005 169.986 15.9005 169.986H168.1C168.1 169.986 172.881 169.386 174.812 167.529C176.763 165.653 176.993 161.214 176.993 161.214L178 55.3181C178 55.3181 177.505 49.0332 174.812 46.5464C172.254 44.1856 166.254 43.8984 166.254 43.8984H136.888H46.4411H15.9006C15.9006 43.8984 10.0248 45.0281 8.01379 47.7049ZM16.9075 54.3249C15.0876 55.952 15.565 60.614 15.565 60.614V156.275C15.565 156.275 15.5753 159.231 16.7397 160.413C17.8695 161.559 20.767 161.406 20.767 161.406L161.22 161.902C161.22 161.902 165.57 162.148 167.093 160.413C168.195 159.156 168.1 156.275 168.1 156.275L168.771 60.4485C168.771 60.4485 169.004 55.9255 167.261 54.3249C165.969 53.1391 162.898 53.1664 162.898 53.1664H21.4382C21.4382 53.1664 18.2617 53.1141 16.9075 54.3249Z" fill="#BC7100"/>
<path d="M15.565 60.614C15.565 60.614 15.0876 55.952 16.9075 54.3249C18.2617 53.1141 21.4382 53.1664 21.4382 53.1664H162.898C162.898 53.1664 165.969 53.1391 167.261 54.3249C169.004 55.9255 168.771 60.4485 168.771 60.4485L168.1 156.275C168.1 156.275 168.195 159.156 167.093 160.413C165.57 162.148 161.22 161.902 161.22 161.902L20.767 161.406C20.767 161.406 17.8695 161.559 16.7397 160.413C15.5753 159.231 15.565 156.275 15.565 156.275V60.614Z" fill="white"/>
<path d="M86.7142 3.35006C82.115 6.06413 80.7787 12.2662 83.8616 16.5903C86.4813 20.4483 91.1346 21.7786 95.4401 19.9004C97.0575 19.1949 98.3477 18.0161 99.259 16.5903C101.337 13.3391 101.444 8.8037 98.964 5.66711C95.9687 1.87861 90.8942 0.883425 86.7142 3.35006Z" fill="#7E4E05"/>
<path d="M6.00013 55.6491L7.50007 55.6348L7.50005 55.6335L6.00013 55.6491ZM8.01379 47.7049L9.21307 48.6059L9.21307 48.6059L8.01379 47.7049ZM15.9006 43.8984V42.3984H15.7577L15.6174 42.4253L15.9006 43.8984ZM166.254 43.8984L166.325 42.4001L166.29 42.3984H166.254V43.8984ZM174.812 46.5464L175.829 45.4443L174.812 46.5464ZM178 55.3181L179.5 55.3324L179.501 55.2663L179.495 55.2004L178 55.3181ZM176.993 161.214L178.491 161.292L178.493 161.26L178.493 161.228L176.993 161.214ZM174.812 167.529L173.772 166.448L173.772 166.448L174.812 167.529ZM168.1 169.986V171.486H168.193L168.286 171.474L168.1 169.986ZM15.9005 169.986V168.486H15.8448L15.7894 168.49L15.9005 169.986ZM9.18845 167.86L8.10665 168.899L9.18845 167.86ZM7.00683 161.406L5.5069 161.42L5.5074 161.473L5.5116 161.525L7.00683 161.406ZM83.8616 16.5903L85.1025 15.7477L85.0929 15.7335L85.0829 15.7196L83.8616 16.5903ZM86.7142 3.35006L85.9519 2.05822L86.7142 3.35006ZM98.964 5.66711L100.141 4.7368L98.964 5.66711ZM95.4401 19.9004L96.0399 21.2753L95.4401 19.9004ZM99.259 16.5903L97.9951 15.7825L99.259 16.5903ZM15.565 60.614H17.065V60.5374L17.0572 60.4612L15.565 60.614ZM16.9075 54.3249L17.9073 55.4431L16.9075 54.3249ZM21.4382 53.1664L21.4135 54.6662L21.4259 54.6664H21.4382V53.1664ZM162.898 53.1664V54.6664L162.911 54.6663L162.898 53.1664ZM167.261 54.3249L168.275 53.22L168.275 53.22L167.261 54.3249ZM168.771 60.4485L167.273 60.3713L167.271 60.4046L167.271 60.438L168.771 60.4485ZM168.1 156.275L166.6 156.264L166.599 156.295L166.6 156.325L168.1 156.275ZM167.093 160.413L168.22 161.402L168.22 161.402L167.093 160.413ZM161.22 161.902L161.304 160.404L161.265 160.402L161.225 160.402L161.22 161.902ZM20.767 161.406L20.7723 159.906L20.7299 159.906L20.6876 159.908L20.767 161.406ZM16.7397 160.413L15.6712 161.465L15.6712 161.465L16.7397 160.413ZM15.565 156.275H14.065L14.065 156.28L15.565 156.275ZM6.00013 55.6491C7.50005 55.6335 7.50005 55.6338 7.50006 55.634C7.50006 55.6341 7.50006 55.6343 7.50006 55.6344C7.50006 55.6347 7.50007 55.6348 7.50007 55.6349C7.50007 55.6351 7.50007 55.635 7.50006 55.6345C7.50006 55.6336 7.50004 55.6315 7.50003 55.6282C7.5 55.6216 7.49998 55.6102 7.50003 55.5944C7.50011 55.5626 7.50048 55.5127 7.50162 55.4467C7.50392 55.3145 7.50936 55.1181 7.52202 54.8719C7.54742 54.3779 7.60146 53.6927 7.71516 52.9305C7.95155 51.3458 8.41255 49.6715 9.21307 48.6059L6.81451 46.804C5.54733 48.4907 5.0015 50.7885 4.74799 52.4878C4.61674 53.3677 4.55506 54.1523 4.52598 54.7178C4.51139 55.0014 4.5049 55.2321 4.50208 55.3946C4.50066 55.4759 4.50017 55.5403 4.50004 55.5859C4.49997 55.6087 4.5 55.6268 4.50005 55.6401C4.50008 55.6467 4.50011 55.652 4.50014 55.6562C4.50016 55.6582 4.50017 55.66 4.50018 55.6614C4.50019 55.6621 4.5002 55.6627 4.5002 55.6633C4.5002 55.6636 4.50021 55.6639 4.50021 55.6641C4.50021 55.6644 4.50021 55.6647 6.00013 55.6491ZM9.21307 48.6059C9.92942 47.6523 11.5155 46.8203 13.2177 46.2098C14.0213 45.9215 14.7707 45.71 15.32 45.5706C15.5936 45.5012 15.8151 45.4503 15.9657 45.4173C16.041 45.4008 16.0983 45.3887 16.1355 45.3811C16.1541 45.3773 16.1676 45.3746 16.1758 45.373C16.1798 45.3722 16.1826 45.3716 16.1839 45.3714C16.1846 45.3712 16.1849 45.3712 16.1849 45.3712C16.1849 45.3712 16.1848 45.3712 16.1846 45.3712C16.1845 45.3713 16.1843 45.3713 16.1843 45.3713C16.1841 45.3713 16.1838 45.3714 15.9006 43.8984C15.6174 42.4253 15.6171 42.4254 15.6168 42.4255C15.6167 42.4255 15.6163 42.4256 15.6161 42.4256C15.6155 42.4257 15.6149 42.4258 15.6142 42.426C15.6127 42.4263 15.6109 42.4266 15.6088 42.427C15.6045 42.4279 15.5987 42.429 15.5916 42.4304C15.5774 42.4332 15.5577 42.4372 15.5327 42.4423C15.4829 42.4525 15.412 42.4674 15.3227 42.487C15.1441 42.5262 14.8908 42.5845 14.5822 42.6628C13.967 42.8189 13.1217 43.0571 12.2049 43.3859C10.4665 44.0094 8.10914 45.0807 6.81451 46.804L9.21307 48.6059ZM166.254 43.8984C166.182 45.3967 166.182 45.3966 166.181 45.3966C166.181 45.3966 166.181 45.3966 166.181 45.3966C166.181 45.3966 166.181 45.3966 166.181 45.3966C166.181 45.3966 166.181 45.3966 166.182 45.3967C166.183 45.3967 166.186 45.3969 166.19 45.3971C166.199 45.3975 166.213 45.3983 166.232 45.3995C166.27 45.4018 166.329 45.4056 166.406 45.4113C166.561 45.4227 166.79 45.4417 167.073 45.4718C167.642 45.5321 168.424 45.6356 169.277 45.8075C171.07 46.1689 172.844 46.7712 173.794 47.6486L175.829 45.4443C174.222 43.9608 171.717 43.239 169.87 42.8667C168.903 42.6717 168.025 42.5558 167.389 42.4885C167.07 42.4547 166.81 42.4329 166.627 42.4194C166.535 42.4126 166.463 42.4079 166.412 42.4049C166.386 42.4033 166.366 42.4022 166.352 42.4014C166.344 42.401 166.339 42.4007 166.334 42.4005C166.332 42.4004 166.33 42.4003 166.329 42.4002C166.328 42.4002 166.327 42.4002 166.327 42.4001C166.326 42.4001 166.326 42.4001 166.326 42.4001C166.326 42.4001 166.325 42.4001 166.254 43.8984ZM173.794 47.6486C174.789 48.5672 175.506 50.3692 175.959 52.2212C176.174 53.1015 176.312 53.9137 176.395 54.5064C176.437 54.8018 176.465 55.04 176.482 55.2018C176.49 55.2826 176.496 55.3441 176.5 55.384C176.502 55.4039 176.503 55.4184 176.504 55.4271C176.504 55.4315 176.505 55.4344 176.505 55.4359C176.505 55.4366 176.505 55.437 176.505 55.437C176.505 55.437 176.505 55.4369 176.505 55.4367C176.505 55.4366 176.505 55.4363 176.505 55.4363C176.505 55.4361 176.505 55.4358 178 55.3181C179.495 55.2004 179.495 55.2001 179.495 55.1998C179.495 55.1996 179.495 55.1993 179.495 55.199C179.495 55.1984 179.495 55.1977 179.495 55.1969C179.495 55.1954 179.495 55.1935 179.495 55.1912C179.494 55.1866 179.494 55.1804 179.493 55.1728C179.492 55.1577 179.49 55.1365 179.488 55.1098C179.483 55.0564 179.475 54.9805 179.465 54.8846C179.445 54.693 179.413 54.4208 179.366 54.088C179.273 53.4246 179.118 52.5102 178.873 51.5084C178.405 49.5963 177.528 47.0125 175.829 45.4443L173.794 47.6486ZM176.5 55.3038L175.493 161.2L178.493 161.228L179.5 55.3324L176.5 55.3038ZM176.993 161.214C175.495 161.137 175.495 161.136 175.495 161.136C175.495 161.136 175.495 161.136 175.495 161.136C175.495 161.135 175.495 161.135 175.495 161.135C175.495 161.135 175.495 161.135 175.495 161.135C175.495 161.135 175.495 161.137 175.495 161.139C175.495 161.144 175.494 161.154 175.493 161.166C175.491 161.192 175.489 161.233 175.484 161.288C175.475 161.397 175.46 161.56 175.437 161.763C175.389 162.171 175.307 162.731 175.171 163.34C174.879 164.64 174.408 165.836 173.772 166.448L175.851 168.61C177.167 167.346 177.787 165.384 178.098 163.996C178.263 163.261 178.36 162.594 178.416 162.111C178.445 161.869 178.463 161.67 178.474 161.529C178.48 161.459 178.484 161.403 178.487 161.363C178.488 161.342 178.489 161.326 178.49 161.315C178.49 161.309 178.49 161.304 178.491 161.3C178.491 161.298 178.491 161.296 178.491 161.295C178.491 161.294 178.491 161.294 178.491 161.293C178.491 161.293 178.491 161.293 178.491 161.292C178.491 161.292 178.491 161.292 176.993 161.214ZM173.772 166.448C173.108 167.087 171.769 167.626 170.346 168.004C169.678 168.182 169.063 168.306 168.614 168.386C168.39 168.426 168.21 168.455 168.088 168.473C168.027 168.482 167.981 168.488 167.951 168.492C167.936 168.494 167.925 168.496 167.919 168.497C167.915 168.497 167.913 168.497 167.912 168.498C167.912 168.498 167.912 168.498 167.912 168.498C167.912 168.498 167.912 168.498 167.912 168.498C167.912 168.498 167.912 168.498 167.912 168.498C167.913 168.498 167.913 168.498 168.1 169.986C168.286 171.474 168.287 171.474 168.287 171.474C168.287 171.474 168.287 171.474 168.287 171.474C168.288 171.474 168.288 171.474 168.289 171.474C168.29 171.474 168.292 171.473 168.294 171.473C168.297 171.473 168.302 171.472 168.308 171.471C168.32 171.47 168.336 171.468 168.357 171.465C168.398 171.459 168.456 171.451 168.53 171.44C168.677 171.418 168.885 171.385 169.14 171.34C169.648 171.249 170.348 171.108 171.117 170.903C172.568 170.518 174.585 169.828 175.851 168.61L173.772 166.448ZM168.1 168.486H15.9005V171.486H168.1V168.486ZM15.9005 169.986C15.7894 168.49 15.7898 168.49 15.7902 168.49C15.7903 168.49 15.7907 168.49 15.7909 168.49C15.7914 168.49 15.7918 168.49 15.7921 168.49C15.7927 168.49 15.7931 168.49 15.7933 168.49C15.7935 168.49 15.7928 168.49 15.7911 168.49C15.7877 168.49 15.7803 168.491 15.7692 168.491C15.747 168.492 15.7098 168.494 15.6593 168.496C15.558 168.499 15.404 168.502 15.2092 168.498C14.8173 168.491 14.2727 168.46 13.6676 168.361C12.4135 168.157 11.1168 167.703 10.2703 166.821L8.10665 168.899C9.61277 170.467 11.6721 171.076 13.1858 171.322C13.9646 171.449 14.6569 171.489 15.1559 171.498C15.4066 171.502 15.6115 171.499 15.7579 171.494C15.8311 171.492 15.8899 171.489 15.9327 171.487C15.9541 171.485 15.9715 171.484 15.9847 171.484C15.9913 171.483 15.9969 171.483 16.0014 171.482C16.0036 171.482 16.0056 171.482 16.0073 171.482C16.0081 171.482 16.0089 171.482 16.0097 171.482C16.01 171.482 16.0105 171.482 16.0107 171.482C16.0112 171.482 16.0116 171.482 15.9005 169.986ZM10.2703 166.821C9.66743 166.194 9.1907 164.94 8.87783 163.586C8.73148 162.953 8.63654 162.37 8.57837 161.945C8.54942 161.733 8.52989 161.563 8.51781 161.448C8.51177 161.391 8.50761 161.348 8.50507 161.32C8.5038 161.306 8.50293 161.296 8.50244 161.291C8.50219 161.288 8.50204 161.286 8.50198 161.285C8.50195 161.285 8.50194 161.285 8.50195 161.285C8.50196 161.285 8.50197 161.285 8.50199 161.285C8.502 161.285 8.50201 161.286 8.50202 161.286C8.50204 161.286 8.50206 161.286 7.00683 161.406C5.5116 161.525 5.51162 161.526 5.51165 161.526C5.51166 161.526 5.51168 161.526 5.5117 161.527C5.51174 161.527 5.51179 161.528 5.51184 161.528C5.51194 161.529 5.51207 161.531 5.51222 161.533C5.51252 161.537 5.51292 161.541 5.51342 161.547C5.51442 161.559 5.51583 161.575 5.51767 161.595C5.52136 161.635 5.52681 161.691 5.5343 161.763C5.54926 161.905 5.57244 162.106 5.60608 162.352C5.6731 162.841 5.78292 163.517 5.95488 164.262C6.27863 165.662 6.89272 167.636 8.10665 168.899L10.2703 166.821ZM8.50676 161.391L7.50007 55.6348L4.5002 55.6634L5.5069 161.42L8.50676 161.391ZM15.9006 45.3984H46.4411V42.3984H15.9006V45.3984ZM46.4411 43.8984C47.3253 45.11 47.3254 45.11 47.3256 45.1098C47.3258 45.1097 47.326 45.1095 47.3264 45.1093C47.327 45.1088 47.3282 45.1079 47.3295 45.107C47.3323 45.105 47.3364 45.102 47.3419 45.0979C47.353 45.0899 47.3694 45.0779 47.3912 45.062C47.4348 45.0301 47.4997 44.9828 47.585 44.9205C47.7556 44.796 48.0078 44.612 48.3339 44.3741C48.986 43.8981 49.934 43.2063 51.1172 42.3428C53.4837 40.6159 56.7913 38.2022 60.5555 35.4552C68.0839 29.9612 77.439 23.1342 84.7458 17.802L82.9773 15.3787C75.6705 20.7109 66.3154 27.5379 58.787 33.0319C55.0228 35.7788 51.7153 38.1925 49.3488 39.9195C48.1655 40.783 47.2176 41.4748 46.5654 41.9507C46.2393 42.1887 45.9872 42.3727 45.8166 42.4972C45.7313 42.5594 45.6663 42.6068 45.6228 42.6386C45.601 42.6545 45.5845 42.6666 45.5735 42.6746C45.568 42.6786 45.5638 42.6817 45.561 42.6837C45.5596 42.6847 45.5587 42.6854 45.5579 42.6859C45.5576 42.6862 45.5573 42.6864 45.5571 42.6865C45.557 42.6866 45.5569 42.6867 46.4411 43.8984ZM85.0829 15.7196C82.5159 12.1188 83.6269 6.91363 87.4766 4.6419L85.9519 2.05822C80.6031 5.21463 79.0416 12.4136 82.6402 17.4611L85.0829 15.7196ZM87.4766 4.6419C91.0003 2.56253 95.2495 3.38762 97.7873 6.59742L100.141 4.7368C96.6878 0.369598 90.7881 -0.795685 85.9519 2.05822L87.4766 4.6419ZM94.8403 18.5255C91.1894 20.1182 87.3123 19.0019 85.1025 15.7477L82.6206 17.433C85.6503 21.8946 91.0799 23.4389 96.0399 21.2753L94.8403 18.5255ZM97.7873 6.59742C99.8144 9.16124 99.7803 12.9894 97.9951 15.7825L100.523 17.3981C102.894 13.6889 103.073 8.44615 100.141 4.7368L97.7873 6.59742ZM97.9951 15.7825C97.2278 16.983 96.1585 17.9505 94.8403 18.5255L96.0399 21.2753C97.9564 20.4392 99.4677 19.0491 100.523 17.3981L97.9951 15.7825ZM46.4411 45.3984H136.888V42.3984H46.4411V45.3984ZM136.888 45.3984H166.254V42.3984H136.888V45.3984ZM98.378 17.8043L136.007 45.1124L137.769 42.6844L100.14 15.3763L98.378 17.8043ZM15.565 60.614C17.0572 60.4612 17.0573 60.4615 17.0573 60.4618C17.0573 60.4618 17.0573 60.4621 17.0573 60.4622C17.0574 60.4625 17.0574 60.4627 17.0574 60.4628C17.0574 60.4631 17.0574 60.4631 17.0574 60.4628C17.0573 60.4622 17.0572 60.4606 17.0569 60.4579C17.0564 60.4525 17.0555 60.4428 17.0543 60.4292C17.0519 60.402 17.0483 60.3589 17.0441 60.3017C17.0358 60.1873 17.0254 60.0176 17.0179 59.8073C17.003 59.3836 17.0008 58.8097 17.0491 58.1978C17.098 57.5789 17.1952 56.9663 17.3598 56.4474C17.5291 55.9135 17.7314 55.6004 17.9073 55.4431L15.9077 53.2067C15.1736 53.863 14.7531 54.7428 14.5001 55.5406C14.2423 56.3535 14.1177 57.2115 14.0585 57.9615C13.9987 58.7185 14.0021 59.4118 14.0198 59.9131C14.0287 60.1652 14.0413 60.3724 14.052 60.5193C14.0574 60.5928 14.0622 60.6515 14.0659 60.6933C14.0678 60.7142 14.0693 60.731 14.0705 60.7433C14.0711 60.7495 14.0716 60.7545 14.072 60.7585C14.0722 60.7604 14.0724 60.7621 14.0725 60.7635C14.0726 60.7642 14.0726 60.7648 14.0727 60.7654C14.0727 60.7657 14.0728 60.766 14.0728 60.7662C14.0728 60.7665 14.0728 60.7668 15.565 60.614ZM17.9073 55.4431C18.2247 55.1593 18.9561 54.911 19.8938 54.7764C20.3143 54.716 20.7027 54.6882 20.9866 54.6757C21.1275 54.6695 21.24 54.6672 21.3147 54.6664C21.352 54.666 21.3797 54.666 21.3966 54.6661C21.4051 54.6661 21.4108 54.6662 21.4137 54.6662C21.4151 54.6662 21.4158 54.6662 21.4158 54.6662C21.4158 54.6662 21.4156 54.6662 21.4152 54.6662C21.415 54.6662 21.4148 54.6662 21.4145 54.6662C21.4144 54.6662 21.4141 54.6662 21.414 54.6662C21.4138 54.6662 21.4135 54.6662 21.4382 53.1664C21.4629 51.6666 21.4626 51.6666 21.4623 51.6666C21.4622 51.6666 21.4618 51.6666 21.4616 51.6666C21.4611 51.6666 21.4606 51.6665 21.46 51.6665C21.4589 51.6665 21.4575 51.6665 21.456 51.6665C21.4529 51.6664 21.449 51.6664 21.4444 51.6663C21.4352 51.6662 21.4229 51.6662 21.4077 51.6661C21.3775 51.666 21.3356 51.666 21.2834 51.6666C21.1791 51.6677 21.0329 51.6707 20.8549 51.6786C20.5008 51.6941 20.0104 51.7289 19.4676 51.8068C18.4785 51.9488 16.9445 52.2797 15.9077 53.2067L17.9073 55.4431ZM21.4382 54.6664H162.898V51.6664H21.4382V54.6664ZM162.898 53.1664C162.911 54.6663 162.911 54.6663 162.91 54.6663C162.91 54.6663 162.91 54.6663 162.91 54.6663C162.91 54.6663 162.909 54.6663 162.909 54.6663C162.909 54.6663 162.909 54.6663 162.909 54.6663C162.908 54.6663 162.909 54.6663 162.91 54.6663C162.913 54.6663 162.918 54.6663 162.926 54.6663C162.943 54.6664 162.969 54.6666 163.005 54.6673C163.077 54.6686 163.185 54.6716 163.32 54.6786C163.593 54.6928 163.966 54.7226 164.369 54.7839C165.273 54.9215 165.959 55.1661 166.246 55.4298L168.275 53.22C167.271 52.2979 165.775 51.9633 164.82 51.818C164.294 51.738 163.819 51.7005 163.475 51.6827C163.303 51.6737 163.161 51.6696 163.059 51.6678C163.009 51.6668 162.968 51.6665 162.938 51.6664C162.924 51.6663 162.912 51.6663 162.903 51.6663C162.898 51.6664 162.894 51.6664 162.891 51.6664C162.89 51.6664 162.888 51.6664 162.887 51.6664C162.887 51.6664 162.886 51.6664 162.886 51.6664C162.885 51.6664 162.885 51.6664 162.885 51.6664C162.885 51.6664 162.884 51.6664 162.898 53.1664ZM166.246 55.4298C166.424 55.5934 166.631 55.9144 166.814 56.4449C166.99 56.9592 167.108 57.5617 167.18 58.1656C167.252 58.7633 167.275 59.3227 167.28 59.7348C167.283 59.9395 167.28 60.1046 167.278 60.2159C167.276 60.2715 167.275 60.3135 167.274 60.34C167.274 60.3533 167.273 60.3627 167.273 60.368C167.273 60.3706 167.273 60.3722 167.273 60.3728C167.273 60.3731 167.273 60.3731 167.273 60.3729C167.273 60.3727 167.273 60.3726 167.273 60.3723C167.273 60.3722 167.273 60.3719 167.273 60.3719C167.273 60.3716 167.273 60.3713 168.771 60.4485C170.269 60.5257 170.269 60.5254 170.269 60.5251C170.269 60.525 170.269 60.5246 170.269 60.5243C170.269 60.5238 170.269 60.5232 170.269 60.5225C170.269 60.5212 170.269 60.5196 170.269 60.5177C170.269 60.5139 170.27 60.509 170.27 60.503C170.27 60.4911 170.271 60.4749 170.272 60.4547C170.273 60.4142 170.275 60.3574 170.277 60.2862C170.28 60.1439 170.283 59.9431 170.28 59.6988C170.274 59.2128 170.247 58.5414 170.159 57.8083C170.072 57.0814 169.92 56.253 169.65 55.469C169.386 54.7013 168.969 53.8567 168.275 53.22L166.246 55.4298ZM167.271 60.438L166.6 156.264L169.6 156.285L170.271 60.459L167.271 60.438ZM168.1 156.275C166.6 156.325 166.6 156.324 166.6 156.324C166.6 156.324 166.6 156.324 166.6 156.324C166.6 156.323 166.6 156.323 166.6 156.323C166.6 156.322 166.6 156.322 166.6 156.322C166.6 156.322 166.6 156.322 166.6 156.323C166.6 156.326 166.601 156.33 166.601 156.338C166.601 156.352 166.601 156.377 166.602 156.41C166.602 156.476 166.601 156.576 166.598 156.702C166.591 156.956 166.571 157.303 166.522 157.679C166.412 158.526 166.197 159.159 165.965 159.423L168.22 161.402C169.091 160.41 169.379 158.973 169.497 158.066C169.562 157.565 169.587 157.113 169.597 156.788C169.601 156.624 169.602 156.489 169.601 156.393C169.601 156.345 169.601 156.306 169.6 156.277C169.6 156.263 169.599 156.252 169.599 156.243C169.599 156.239 169.599 156.235 169.599 156.232C169.599 156.231 169.599 156.229 169.599 156.228C169.599 156.228 169.599 156.227 169.599 156.227C169.599 156.226 169.599 156.226 169.599 156.226C169.599 156.226 169.599 156.225 168.1 156.275ZM165.965 159.423C165.819 159.59 165.527 159.788 165.031 159.964C164.548 160.136 163.979 160.249 163.404 160.319C162.836 160.388 162.302 160.41 161.909 160.413C161.714 160.415 161.556 160.413 161.451 160.41C161.398 160.408 161.358 160.407 161.333 160.406C161.32 160.405 161.312 160.405 161.307 160.405C161.304 160.404 161.303 160.404 161.303 160.404C161.302 160.404 161.302 160.404 161.303 160.404C161.303 160.404 161.303 160.404 161.303 160.404C161.303 160.404 161.304 160.404 161.304 160.404C161.304 160.404 161.304 160.404 161.22 161.902C161.135 163.4 161.135 163.4 161.135 163.4C161.136 163.4 161.136 163.4 161.136 163.4C161.137 163.4 161.137 163.4 161.138 163.4C161.139 163.4 161.141 163.4 161.143 163.4C161.147 163.4 161.151 163.401 161.157 163.401C161.169 163.401 161.185 163.402 161.205 163.403C161.244 163.405 161.299 163.407 161.368 163.409C161.506 163.412 161.701 163.416 161.937 163.413C162.407 163.409 163.057 163.384 163.766 163.297C164.469 163.212 165.273 163.062 166.035 162.791C166.782 162.525 167.605 162.103 168.22 161.402L165.965 159.423ZM161.225 160.402L20.7723 159.906L20.7617 162.906L161.214 163.402L161.225 160.402ZM20.767 161.406C20.6876 159.908 20.6879 159.908 20.6882 159.908C20.6883 159.908 20.6886 159.908 20.6887 159.908C20.689 159.908 20.6893 159.908 20.6896 159.908C20.69 159.908 20.6903 159.908 20.6905 159.908C20.6907 159.908 20.6903 159.908 20.6893 159.908C20.6872 159.908 20.6825 159.908 20.6753 159.908C20.661 159.909 20.6369 159.91 20.6042 159.91C20.5387 159.912 20.4393 159.913 20.3149 159.912C20.0635 159.909 19.7224 159.894 19.3576 159.85C18.9874 159.805 18.6294 159.734 18.3299 159.632C18.0177 159.525 17.8651 159.418 17.8081 159.36L15.6712 161.465C16.1791 161.981 16.8124 162.284 17.3613 162.471C17.9229 162.663 18.5011 162.768 18.9964 162.828C19.4972 162.889 19.9511 162.908 20.2783 162.912C20.4431 162.914 20.579 162.912 20.6763 162.91C20.725 162.908 20.7643 162.907 20.793 162.906C20.8074 162.905 20.8191 162.905 20.828 162.905C20.8325 162.904 20.8362 162.904 20.8393 162.904C20.8408 162.904 20.8422 162.904 20.8433 162.904C20.8439 162.904 20.8445 162.904 20.845 162.904C20.8452 162.904 20.8456 162.904 20.8457 162.904C20.846 162.904 20.8463 162.904 20.767 161.406ZM17.8081 159.36C17.5817 159.13 17.3398 158.519 17.1952 157.653C17.1316 157.273 17.0985 156.918 17.0817 156.658C17.0733 156.529 17.0691 156.426 17.067 156.358C17.066 156.324 17.0655 156.299 17.0652 156.284C17.0651 156.276 17.0651 156.271 17.065 156.269C17.065 156.268 17.065 156.267 17.065 156.267C17.065 156.267 17.065 156.268 17.065 156.268C17.065 156.268 17.065 156.268 17.065 156.269C17.065 156.269 17.065 156.269 17.065 156.269C17.065 156.269 17.065 156.27 15.565 156.275C14.065 156.28 14.065 156.28 14.065 156.281C14.065 156.281 14.065 156.281 14.065 156.281C14.0651 156.282 14.0651 156.282 14.0651 156.283C14.0651 156.284 14.0651 156.285 14.0651 156.287C14.0651 156.29 14.0651 156.294 14.0652 156.298C14.0653 156.307 14.0654 156.319 14.0656 156.333C14.0661 156.362 14.0669 156.401 14.0685 156.45C14.0715 156.548 14.0772 156.686 14.088 156.852C14.1094 157.183 14.1517 157.642 14.2362 158.148C14.3878 159.055 14.7332 160.513 15.6712 161.465L17.8081 159.36ZM17.065 156.275V60.614H14.065V156.275H17.065Z" fill="black"/>
</g>
<rect x="36.9802" y="74.6501" width="110" height="61" rx="3.5" transform="rotate(0.889641 36.9802 74.6501)" fill="white" stroke="black" stroke-width="3"/>
<path d="M74.095 107.129L108.599 106.921" stroke="black" stroke-width="3"/>
<path d="M74.095 115.465L108.599 115.257" stroke="black" stroke-width="3"/>
<path d="M74.095 123.797L108.599 123.589" stroke="black" stroke-width="3"/>
<rect x="125.5" y="80.5" width="13" height="15" fill="white" stroke="black" stroke-width="3"/>
<path d="M117 87.5C117 92.7932 112.925 97 108 97C103.075 97 99 92.7932 99 87.5C99 82.2068 103.075 78 108 78C112.925 78 117 82.2068 117 87.5Z" fill="white" stroke="black" stroke-width="2"/>
<path d="M113 87.5C113 90.6144 110.688 93 108 93C105.312 93 103 90.6144 103 87.5C103 84.3856 105.312 82 108 82C110.688 82 113 84.3856 113 87.5Z" fill="white" stroke="black" stroke-width="2"/>
<path d="M85 86.9033C85.3519 86.6368 85.6209 86.4061 86.0176 86.2304C86.213 86.1438 86.4418 86.1734 86.6189 86.0814C86.9634 85.9025 87.3218 85.7463 87.6828 85.5864C88.2861 85.3191 88.8899 85.0865 89.5793 85.0865C90.1938 85.0865 90.9044 85 91.5683 85C92.5527 85 93.3702 85.1658 94.2974 85.4326C95.215 85.6966 96.164 85.8863 97.0675 86.1679C97.5742 86.3258 98.0736 86.5164 98.5786 86.6629C99.0287 86.7936 99.5607 86.7069 99.9868 86.884C100.383 87.0486 101.028 86.9898 101.462 86.9898C101.988 86.9898 102.514 86.9898 103.04 86.9898C103.672 86.9898 104.291 86.5399 104.777 86.2112C105.047 86.0281 105.289 85.6417 105.584 85.5191C105.727 85.4595 105.936 85.2933 106 85.173" stroke="black" stroke-width="2" stroke-linecap="round"/>
<path d="M85 88.9516C85.3519 88.8184 85.6209 88.7031 86.0176 88.6152C86.213 88.5719 86.4418 88.5867 86.6189 88.5407C86.9634 88.4512 87.3218 88.3731 87.6828 88.2932C88.2861 88.1596 88.8899 88.0433 89.5793 88.0433C90.1938 88.0433 90.9044 88 91.5683 88C92.5527 88 93.3702 88.0829 94.2974 88.2163C95.215 88.3483 96.164 88.4431 97.0675 88.584C97.5742 88.6629 98.0736 88.7582 98.5786 88.8315C99.0287 88.8968 99.5607 88.8535 99.9868 88.942C100.383 89.0243 101.028 88.9949 101.462 88.9949C101.988 88.9949 102.514 88.9949 103.04 88.9949C103.672 88.9949 104.291 88.7699 104.777 88.6056C105.047 88.514 105.289 88.3209 105.584 88.2595C105.727 88.2297 105.936 88.1466 106 88.0865" stroke="black" stroke-width="2" stroke-linecap="round"/>
<path d="M85 91.9033C85.3519 91.6368 85.6209 91.4061 86.0176 91.2304C86.213 91.1438 86.4418 91.1734 86.6189 91.0814C86.9634 90.9025 87.3218 90.7463 87.6828 90.5864C88.2861 90.3191 88.8899 90.0865 89.5793 90.0865C90.1938 90.0865 90.9044 90 91.5683 90C92.5527 90 93.3702 90.1658 94.2974 90.4326C95.215 90.6966 96.164 90.8863 97.0675 91.1679C97.5742 91.3258 98.0736 91.5164 98.5786 91.6629C99.0287 91.7936 99.5607 91.7069 99.9868 91.884C100.383 92.0486 101.028 91.9898 101.462 91.9898C101.988 91.9898 102.514 91.9898 103.04 91.9898C103.672 91.9898 104.291 91.5399 104.777 91.2112C105.047 91.0281 105.289 90.6417 105.584 90.5191C105.727 90.4595 105.936 90.2933 106 90.173" stroke="black" stroke-width="2" stroke-linecap="round"/>
<rect x="1.30731" y="1.67361" width="110.157" height="60.7409" rx="3.5" transform="matrix(0.992398 0.123069 -0.120855 0.99267 39.9156 66.8514)" fill="white" stroke="black" stroke-width="3"/>
<path d="M74.7257 104.717L108.997 108.757" stroke="black" stroke-width="3"/>
<path d="M73.7188 112.988L107.99 117.028" stroke="black" stroke-width="3"/>
<path d="M72.7117 121.26L106.983 125.3" stroke="black" stroke-width="3"/>
<rect x="1.30731" y="1.67361" width="12.9669" height="15.2117" transform="matrix(0.992398 0.123069 -0.120855 0.99267 127.507 82.6541)" fill="white" stroke="black" stroke-width="3"/>
<path d="M119.775 90.339C119.135 95.5915 114.558 99.2716 109.629 98.6603C104.699 98.049 101.141 93.36 101.781 88.1075C102.42 82.855 106.997 79.1749 111.927 79.7862C116.856 80.3975 120.414 85.0866 119.775 90.339Z" fill="white" stroke="black" stroke-width="2"/>
<path d="M115.641 89.8274C115.28 92.7981 112.762 94.815 110.137 94.4895C107.511 94.1639 105.553 91.5918 105.914 88.6211C106.276 85.6504 108.794 83.6335 111.419 83.9591C114.044 84.2847 116.003 86.8567 115.641 89.8274Z" fill="white" stroke="black" stroke-width="2"/>
<path d="M88.4801 85.6847C88.8375 85.541 89.1129 85.4123 89.5052 85.3369C89.6985 85.2998 89.9136 85.3473 90.0899 85.3042C90.4328 85.2205 90.787 85.1542 91.144 85.0856C91.7406 84.9709 92.3347 84.8804 92.9906 84.9618C93.5753 85.0343 94.2586 85.058 94.8902 85.1363C95.8268 85.2524 96.5905 85.4641 97.45 85.759C98.3007 86.0509 99.1875 86.2947 100.023 86.5972C100.492 86.7667 100.951 86.9582 101.419 87.1196C101.836 87.2636 102.35 87.2661 102.74 87.4395C103.103 87.6007 103.722 87.6359 104.134 87.6871C104.635 87.7491 105.135 87.8112 105.636 87.8732C106.237 87.9478 106.864 87.7081 107.354 87.5368C107.627 87.4414 107.889 87.2013 108.18 87.1508C108.322 87.1263 108.534 87.0353 108.606 86.9593" stroke="black" stroke-width="2" stroke-linecap="round"/>
<path d="M88.1416 88.4659C88.499 88.3222 88.7744 88.1935 89.1667 88.1181C89.36 88.081 89.5751 88.1286 89.7514 88.0855C90.0943 88.0017 90.4485 87.9354 90.8055 87.8668C91.4021 87.7522 91.9962 87.6617 92.6521 87.743C93.2368 87.8155 93.9201 87.8392 94.5517 87.9175C95.4883 88.0337 96.252 88.2454 97.1115 88.5403C97.9622 88.8321 98.849 89.076 99.6848 89.3784C100.153 89.548 100.612 89.7394 101.08 89.9009C101.498 90.0448 102.011 90.0474 102.401 90.2208C102.764 90.3819 103.384 90.4172 103.796 90.4683C104.296 90.5304 104.797 90.5924 105.297 90.6545C105.899 90.7291 106.526 90.4894 107.016 90.3181C107.288 90.2227 107.551 89.9825 107.842 89.932C107.983 89.9075 108.196 89.8166 108.267 89.7405" stroke="black" stroke-width="2" stroke-linecap="round"/>
<path d="M87.807 91.2136C88.1757 90.9772 88.4608 90.7683 88.8606 90.6318C89.0575 90.5646 89.2714 90.6225 89.4516 90.5474C89.802 90.4014 90.1629 90.2808 90.5267 90.1566C91.1346 89.949 91.7385 89.7777 92.3944 89.859C92.9791 89.9315 93.6661 89.9251 94.2977 90.0035C95.2343 90.1196 95.991 90.389 96.8392 90.7766C97.6786 91.1602 98.5575 91.47 99.3813 91.8704C99.8433 92.0949 100.294 92.3525 100.756 92.565C101.168 92.7543 101.685 92.7267 102.068 92.9617C102.424 93.1801 103.045 93.1949 103.458 93.246C103.958 93.3081 104.458 93.3701 104.959 93.4322C105.56 93.5068 106.207 93.1106 106.71 92.8251C106.991 92.666 107.269 92.2916 107.566 92.1984C107.71 92.1532 107.929 92.0045 108.006 91.8866" stroke="black" stroke-width="2" stroke-linecap="round"/>
<rect x="1.59971" y="1.39079" width="110.148" height="60.7459" rx="3.5" transform="matrix(0.997517 -0.0704239 0.0689588 0.99762 32.1905 77.739)" fill="white" stroke="black" stroke-width="3"/>
<path d="M73.8158 108.074L108.193 105.083" stroke="black" stroke-width="3" stroke-linecap="round"/>
<path d="M74.4756 116.383L108.853 113.392" stroke="black" stroke-width="3" stroke-linecap="round"/>
<path d="M75.1357 124.688L109.513 121.697" stroke="black" stroke-width="3" stroke-linecap="round"/>
<rect x="1.6139" y="1.3743" width="12.9657" height="15.2131" rx="3.5" transform="matrix(0.996742 -0.0806583 0.0791944 0.996859 120.847 76.0837)" fill="white" stroke="#020202" stroke-width="3"/>
<path d="M115.085 84.8573C115.504 90.1325 111.753 94.6656 106.802 95.0662C101.852 95.4668 97.4325 91.5949 97.0135 86.3197C96.5944 81.0445 100.346 76.5114 105.296 76.1108C110.247 75.7102 114.666 79.5821 115.085 84.8573Z" fill="white" stroke="#C74F54" stroke-width="2"/>
<path d="M110.933 85.1948C111.171 88.1785 109.106 90.6646 106.469 90.878C103.833 91.0913 101.402 88.969 101.165 85.9853C100.928 83.0017 102.993 80.5155 105.629 80.3022C108.265 80.0889 110.696 82.2112 110.933 85.1948Z" fill="white" stroke="#C74F54" stroke-width="2"/>
<path d="M83.5016 86.6415C83.8231 86.4283 84.0672 86.2464 84.4366 86.093C84.6185 86.0175 84.8387 86.0204 85.0029 85.9425C85.322 85.7909 85.6559 85.6541 85.9919 85.5145C86.5535 85.2812 87.1175 85.0721 87.7762 85.0188C88.3634 84.9713 89.0375 84.856 89.6718 84.8046C90.6125 84.7285 91.4027 84.7811 92.3034 84.8957C93.1948 85.0091 94.1121 85.0682 94.9911 85.195C95.4839 85.2661 95.9716 85.3606 96.4623 85.4239C96.8996 85.4803 97.4031 85.3786 97.82 85.4694C98.2076 85.5537 98.8211 85.4627 99.2353 85.4291C99.7378 85.3885 100.24 85.3478 100.743 85.3072C101.347 85.2583 101.914 84.8962 102.359 84.6291C102.608 84.4804 102.817 84.1919 103.092 84.0835C103.226 84.0307 103.416 83.8986 103.471 83.8096" stroke="#C74F54" stroke-width="2" stroke-linecap="round"/>
<path d="M83.7235 89.4345C84.045 89.2213 84.2891 89.0394 84.6585 88.886C84.8404 88.8104 85.0606 88.8134 85.2248 88.7354C85.5439 88.5838 85.8778 88.4471 86.2138 88.3075C86.7755 88.0742 87.3394 87.8651 87.9981 87.8118C88.5853 87.7643 89.2595 87.6489 89.8938 87.5976C90.8344 87.5215 91.6247 87.5741 92.5253 87.6887C93.4167 87.8021 94.3341 87.8612 95.213 87.988C95.7058 88.0591 96.1935 88.1535 96.6842 88.2168C97.1215 88.2732 97.625 88.1716 98.042 88.2623C98.4295 88.3466 99.0431 88.2556 99.4572 88.2221C99.9597 88.1815 100.462 88.1408 100.965 88.1001C101.569 88.0512 102.136 87.6892 102.581 87.4221C102.83 87.2734 103.039 86.9849 103.314 86.8764C103.448 86.8237 103.638 86.6915 103.693 86.6026" stroke="#C74F54" stroke-width="2" stroke-linecap="round"/>
<path d="M83.9427 92.1947C84.2568 91.8885 84.4945 91.626 84.859 91.4113C85.0385 91.3055 85.2595 91.3188 85.4212 91.2087C85.7354 90.9946 86.0649 90.8033 86.3965 90.6079C86.9507 90.2813 87.5082 89.991 88.1669 89.9377C88.7541 89.8902 89.4258 89.7446 90.0601 89.6933C91.0008 89.6172 91.7956 89.7276 92.7037 89.9354C93.6024 90.141 94.525 90.2663 95.4118 90.4914C95.9089 90.6177 96.402 90.7787 96.8967 90.8932C97.3377 90.9952 97.8388 90.8633 98.2606 91.0158C98.6527 91.1576 99.2646 91.0461 99.6788 91.0126C100.181 90.9719 100.684 90.9312 101.186 90.8906C101.791 90.8417 102.345 90.3225 102.781 89.9407C103.024 89.728 103.223 89.3047 103.495 89.1534C103.627 89.0798 103.812 88.8897 103.864 88.7587" stroke="#C74F54" stroke-width="2" stroke-linecap="round"/>
<path fill-rule="evenodd" clip-rule="evenodd" d="M125.041 81.1896C125.041 81.1896 127.353 80.3132 128.906 80.2178C130.527 80.1182 133.029 80.7638 133.029 80.7638C133.029 80.7638 133.036 83.8594 132.342 85.5129C131.648 87.1665 129.6 89.1934 129.6 89.1934C129.6 89.1934 127.173 87.2216 126.365 85.8314C125.419 84.2018 125.041 81.1896 125.041 81.1896ZM128.957 81.1576C127.78 81.2317 125.997 81.8651 125.997 81.8651C125.997 81.8651 126.549 84.3408 127.374 85.6402C128.06 86.721 129.533 87.9403 129.533 87.9403C129.533 87.9403 130.872 86.3292 131.386 85.2104C132.026 83.8171 132.13 81.5382 132.13 81.5382C132.13 81.5382 130.201 81.0792 128.957 81.1576Z" fill="#E5BF99"/>
<path d="M125.997 81.8651C125.997 81.8651 127.78 81.2317 128.957 81.1576C130.201 81.0792 132.13 81.5382 132.13 81.5382C132.13 81.5382 132.026 83.8171 131.386 85.2104C130.872 86.3292 129.533 87.9403 129.533 87.9403C129.533 87.9403 128.06 86.721 127.374 85.6402C126.549 84.3408 125.997 81.8651 125.997 81.8651Z" fill="#F5EADC"/>
<path d="M125.041 81.1896L124.863 80.722L124.496 80.8615L124.545 81.2519L125.041 81.1896ZM128.906 80.2178L128.937 80.7168L128.906 80.2178ZM133.029 80.7638L133.529 80.7627L133.528 80.3763L133.154 80.2797L133.029 80.7638ZM129.6 89.1934L129.285 89.5815L129.633 89.8643L129.952 89.5488L129.6 89.1934ZM126.365 85.8314L126.798 85.5804L126.365 85.8314ZM125.997 81.8651L125.83 81.3939L125.413 81.5421L125.509 81.9738L125.997 81.8651ZM128.957 81.1576L128.988 81.6566L128.957 81.1576ZM132.13 81.5382L132.63 81.5612L132.649 81.1476L132.246 81.0518L132.13 81.5382ZM131.386 85.2104L131.84 85.4191L131.386 85.2104ZM129.533 87.9403L129.215 88.3255L129.599 88.6436L129.918 88.2598L129.533 87.9403ZM127.374 85.6402L126.952 85.9081L126.952 85.9081L127.374 85.6402ZM125.041 81.1896C125.218 81.6571 125.218 81.6571 125.218 81.6571C125.218 81.6571 125.218 81.6571 125.218 81.6571C125.218 81.6571 125.218 81.6571 125.218 81.6571C125.218 81.657 125.218 81.6569 125.219 81.6567C125.22 81.6564 125.221 81.6559 125.223 81.6551C125.227 81.6536 125.233 81.6513 125.241 81.6483C125.258 81.6422 125.282 81.6332 125.314 81.6215C125.378 81.5981 125.472 81.5644 125.59 81.5235C125.826 81.4416 126.157 81.3315 126.534 81.2185C127.3 80.9894 128.221 80.7608 128.937 80.7168L128.876 79.7187C128.039 79.7701 127.026 80.0275 126.248 80.2604C125.853 80.3785 125.508 80.4933 125.262 80.5788C125.139 80.6215 125.04 80.657 124.972 80.6819C124.938 80.6944 124.911 80.7043 124.893 80.7111C124.884 80.7145 124.876 80.7171 124.872 80.719C124.869 80.7199 124.867 80.7206 124.866 80.7211C124.865 80.7214 124.865 80.7216 124.864 80.7217C124.864 80.7218 124.864 80.7219 124.864 80.7219C124.864 80.7219 124.864 80.722 124.864 80.722C124.864 80.722 124.863 80.722 125.041 81.1896ZM128.937 80.7168C129.685 80.6709 130.666 80.7978 131.487 80.9456C131.892 81.0184 132.248 81.0944 132.502 81.1521C132.63 81.1809 132.731 81.2052 132.8 81.222C132.835 81.2305 132.861 81.2371 132.879 81.2415C132.888 81.2437 132.894 81.2454 132.899 81.2465C132.901 81.2471 132.902 81.2474 132.903 81.2477C132.904 81.2478 132.904 81.2479 132.904 81.2479C132.904 81.248 132.904 81.248 132.904 81.248C132.905 81.248 132.904 81.248 132.904 81.248C132.904 81.248 132.904 81.248 133.029 80.7638C133.154 80.2797 133.154 80.2797 133.154 80.2797C133.154 80.2797 133.154 80.2796 133.154 80.2796C133.154 80.2796 133.154 80.2795 133.153 80.2795C133.153 80.2794 133.152 80.2792 133.152 80.279C133.15 80.2787 133.148 80.2781 133.146 80.2775C133.14 80.2761 133.133 80.2742 133.123 80.2717C133.103 80.2667 133.074 80.2595 133.037 80.2505C132.963 80.2325 132.857 80.207 132.724 80.1769C132.458 80.1167 132.087 80.0375 131.664 79.9614C130.829 79.8112 129.749 79.665 128.876 79.7187L128.937 80.7168ZM133.029 80.7638C132.529 80.765 132.529 80.7649 132.529 80.7649C132.529 80.7649 132.529 80.7649 132.529 80.7649C132.529 80.7649 132.529 80.765 132.529 80.7651C132.529 80.7653 132.529 80.7657 132.529 80.7663C132.529 80.7675 132.529 80.7694 132.529 80.7721C132.529 80.7774 132.529 80.7855 132.529 80.7964C132.529 80.8182 132.529 80.8509 132.528 80.8934C132.527 80.9785 132.525 81.1027 132.52 81.2572C132.51 81.5666 132.489 81.9959 132.448 82.4751C132.363 83.4507 132.196 84.5701 131.881 85.3194L132.803 85.7064C133.183 84.8022 133.359 83.5471 133.444 82.5615C133.488 82.0601 133.509 81.6121 133.519 81.2895C133.525 81.128 133.527 80.9974 133.528 80.9067C133.529 80.8613 133.529 80.8259 133.529 80.8016C133.529 80.7894 133.529 80.78 133.529 80.7734C133.529 80.7702 133.529 80.7676 133.529 80.7659C133.529 80.765 133.529 80.7642 133.529 80.7637C133.529 80.7635 133.529 80.7632 133.529 80.7631C133.529 80.763 133.529 80.7629 133.529 80.7629C133.529 80.7628 133.529 80.7627 133.029 80.7638ZM131.881 85.3194C131.565 86.0727 130.921 86.9447 130.328 87.6518C130.036 87.9998 129.765 88.2977 129.567 88.5085C129.468 88.6137 129.387 88.697 129.332 88.7535C129.304 88.7818 129.283 88.8033 129.269 88.8176C129.262 88.8248 129.256 88.8301 129.253 88.8335C129.251 88.8352 129.25 88.8365 129.249 88.8372C129.249 88.8376 129.249 88.8379 129.249 88.838C129.248 88.8381 129.248 88.8381 129.248 88.8381C129.248 88.8381 129.248 88.8381 129.248 88.8381C129.248 88.8381 129.249 88.838 129.6 89.1934C129.952 89.5488 129.952 89.5487 129.952 89.5487C129.952 89.5486 129.952 89.5486 129.952 89.5485C129.952 89.5484 129.952 89.5483 129.953 89.5481C129.953 89.5477 129.954 89.5472 129.954 89.5466C129.955 89.5454 129.957 89.5437 129.959 89.5416C129.964 89.5372 129.97 89.531 129.978 89.5229C129.994 89.5066 130.017 89.483 130.047 89.4526C130.107 89.3919 130.192 89.3038 130.295 89.1932C130.503 88.9723 130.787 88.6602 131.094 88.2947C131.698 87.5749 132.425 86.6067 132.803 85.7064L131.881 85.3194ZM129.6 89.1934C129.915 88.8053 129.915 88.8053 129.916 88.8053C129.915 88.8053 129.916 88.8053 129.915 88.8053C129.915 88.8053 129.915 88.8052 129.915 88.8052C129.915 88.805 129.915 88.8047 129.914 88.8043C129.913 88.8035 129.912 88.8022 129.91 88.8005C129.905 88.7971 129.899 88.7918 129.89 88.7847C129.873 88.7706 129.848 88.7494 129.814 88.7219C129.748 88.6667 129.652 88.5859 129.534 88.4845C129.298 88.2815 128.975 87.9967 128.628 87.6698C127.92 87.0025 127.161 86.2058 126.798 85.5804L125.933 86.0825C126.377 86.8472 127.235 87.7315 127.943 88.3977C128.303 88.7375 128.638 89.0326 128.882 89.2427C129.005 89.3478 129.105 89.432 129.174 89.4901C129.209 89.5191 129.236 89.5417 129.255 89.5571C129.265 89.5649 129.272 89.5708 129.277 89.5749C129.279 89.5769 129.281 89.5785 129.283 89.5796C129.283 89.5802 129.284 89.5806 129.284 89.5809C129.284 89.5811 129.285 89.5812 129.285 89.5813C129.285 89.5814 129.285 89.5814 129.285 89.5814C129.285 89.5815 129.285 89.5815 129.6 89.1934ZM126.798 85.5804C126.366 84.836 126.047 83.7394 125.836 82.7908C125.732 82.3238 125.657 81.906 125.608 81.6051C125.584 81.4548 125.566 81.3342 125.554 81.2516C125.548 81.2103 125.544 81.1786 125.541 81.1575C125.539 81.147 125.538 81.1391 125.538 81.134C125.537 81.1314 125.537 81.1296 125.537 81.1285C125.537 81.1279 125.537 81.1275 125.537 81.1273C125.537 81.1272 125.537 81.1271 125.537 81.1271C125.537 81.1271 125.537 81.1271 125.537 81.1271C125.537 81.1272 125.537 81.1272 125.041 81.1896C124.545 81.2519 124.545 81.252 124.545 81.252C124.545 81.2521 124.545 81.2522 124.545 81.2523C124.545 81.2524 124.545 81.2526 124.545 81.2529C124.545 81.2534 124.545 81.2541 124.545 81.255C124.545 81.2568 124.546 81.2593 124.546 81.2625C124.547 81.2689 124.548 81.2781 124.55 81.29C124.553 81.3139 124.558 81.3485 124.564 81.3927C124.576 81.4813 124.595 81.6087 124.621 81.7663C124.673 82.0811 124.751 82.5182 124.86 83.008C125.075 83.9729 125.419 85.1973 125.933 86.0825L126.798 85.5804ZM125.997 81.8651C126.165 82.3362 126.165 82.3362 126.165 82.3362C126.165 82.3362 126.165 82.3362 126.165 82.3362C126.165 82.3362 126.165 82.3362 126.165 82.3362C126.165 82.3362 126.165 82.3361 126.165 82.336C126.166 82.3357 126.167 82.3354 126.169 82.3348C126.172 82.3338 126.176 82.3322 126.182 82.33C126.195 82.3257 126.214 82.3192 126.238 82.3108C126.287 82.294 126.359 82.2697 126.449 82.2403C126.63 82.1813 126.883 82.1019 127.172 82.0203C127.759 81.8542 128.456 81.6901 128.988 81.6566L128.925 80.6586C128.28 80.6992 127.498 80.8888 126.9 81.058C126.595 81.144 126.329 81.2275 126.139 81.2896C126.044 81.3207 125.967 81.3465 125.914 81.3646C125.888 81.3737 125.867 81.3809 125.853 81.3859C125.846 81.3884 125.84 81.3903 125.836 81.3917C125.834 81.3923 125.833 81.3929 125.832 81.3932C125.831 81.3934 125.831 81.3936 125.831 81.3937C125.83 81.3938 125.83 81.3938 125.83 81.3938C125.83 81.3939 125.83 81.3939 125.83 81.3939C125.83 81.3939 125.83 81.3939 125.997 81.8651ZM128.988 81.6566C129.551 81.6211 130.297 81.708 130.929 81.8119C131.239 81.8629 131.512 81.9165 131.707 81.9572C131.805 81.9775 131.883 81.9946 131.935 82.0065C131.962 82.0124 131.982 82.0171 131.996 82.0202C132.002 82.0218 132.007 82.0229 132.011 82.0237C132.012 82.0241 132.013 82.0243 132.014 82.0245C132.014 82.0246 132.015 82.0246 132.015 82.0247C132.015 82.0247 132.015 82.0247 132.015 82.0247C132.015 82.0247 132.015 82.0247 132.015 82.0247C132.015 82.0247 132.015 82.0247 132.13 81.5382C132.246 81.0518 132.246 81.0518 132.246 81.0518C132.246 81.0518 132.246 81.0518 132.246 81.0517C132.246 81.0517 132.246 81.0517 132.245 81.0516C132.245 81.0516 132.245 81.0514 132.244 81.0513C132.243 81.051 132.241 81.0506 132.239 81.0502C132.235 81.0492 132.229 81.0478 132.221 81.046C132.206 81.0424 132.183 81.0373 132.155 81.0308C132.097 81.0179 132.015 80.9998 131.912 80.9783C131.706 80.9354 131.419 80.879 131.091 80.8251C130.447 80.7191 129.607 80.6156 128.925 80.6586L128.988 81.6566ZM132.13 81.5382C131.631 81.5153 131.631 81.5152 131.631 81.5152C131.631 81.5152 131.631 81.5152 131.631 81.5152C131.631 81.5151 131.631 81.5152 131.631 81.5152C131.631 81.5153 131.631 81.5156 131.631 81.516C131.631 81.5167 131.631 81.518 131.631 81.5199C131.631 81.5235 131.63 81.5293 131.63 81.5371C131.629 81.5527 131.628 81.5764 131.626 81.6073C131.622 81.6693 131.615 81.7602 131.606 81.8742C131.587 82.1023 131.555 82.4209 131.503 82.7812C131.399 83.5139 131.22 84.3731 130.932 85.0018L131.84 85.4191C132.191 84.6545 132.385 83.6776 132.493 82.9225C132.548 82.5389 132.582 82.2007 132.602 81.958C132.613 81.8365 132.619 81.7386 132.624 81.6704C132.626 81.6363 132.627 81.6097 132.628 81.5912C132.629 81.582 132.629 81.5748 132.629 81.5698C132.63 81.5672 132.63 81.5652 132.63 81.5638C132.63 81.5631 132.63 81.5625 132.63 81.5621C132.63 81.5619 132.63 81.5617 132.63 81.5615C132.63 81.5614 132.63 81.5613 132.63 81.5613C132.63 81.5612 132.63 81.5612 132.13 81.5382ZM130.932 85.0018C130.697 85.5115 130.261 86.1591 129.864 86.6987C129.669 86.9641 129.49 87.1955 129.359 87.3606C129.293 87.443 129.24 87.5086 129.204 87.5534C129.186 87.5758 129.172 87.5929 129.162 87.6043C129.158 87.61 129.154 87.6143 129.152 87.617C129.151 87.6184 129.15 87.6194 129.149 87.62C129.149 87.6203 129.149 87.6206 129.149 87.6207C129.149 87.6207 129.149 87.6208 129.149 87.6208C129.149 87.6208 129.149 87.6208 129.149 87.6208C129.149 87.6208 129.149 87.6207 129.533 87.9403C129.918 88.2598 129.918 88.2598 129.918 88.2598C129.918 88.2597 129.918 88.2597 129.918 88.2596C129.918 88.2596 129.918 88.2594 129.918 88.2593C129.919 88.259 129.919 88.2587 129.919 88.2582C129.92 88.2573 129.921 88.2559 129.923 88.2542C129.925 88.2508 129.93 88.2459 129.935 88.2395C129.945 88.2268 129.96 88.2082 129.98 88.1844C130.019 88.1367 130.074 88.0677 130.143 87.9816C130.279 87.8096 130.466 87.5683 130.67 87.291C131.071 86.7454 131.561 86.0281 131.84 85.4191L130.932 85.0018ZM129.533 87.9403C129.852 87.555 129.852 87.5551 129.852 87.5551C129.852 87.5551 129.852 87.5551 129.852 87.5551C129.852 87.5551 129.852 87.5551 129.852 87.5551C129.852 87.555 129.852 87.5549 129.852 87.5547C129.851 87.5543 129.85 87.5535 129.849 87.5526C129.847 87.5506 129.843 87.5475 129.838 87.5432C129.828 87.5348 129.813 87.522 129.793 87.5051C129.753 87.4713 129.695 87.4213 129.623 87.3577C129.479 87.2305 129.279 87.0497 129.059 86.8364C128.611 86.4027 128.106 85.8611 127.796 85.3723L126.952 85.9081C127.327 86.5002 127.902 87.1085 128.363 87.5547C128.597 87.7813 128.809 87.9729 128.962 88.108C129.039 88.1757 129.101 88.2294 129.145 88.2665C129.166 88.2851 129.184 88.2995 129.195 88.3094C129.201 88.3144 129.206 88.3183 129.209 88.321C129.211 88.3223 129.212 88.3234 129.213 88.3241C129.213 88.3245 129.214 88.3248 129.214 88.3251C129.214 88.3252 129.214 88.3253 129.215 88.3254C129.215 88.3254 129.215 88.3254 129.215 88.3255C129.215 88.3255 129.215 88.3255 129.533 87.9403ZM127.796 85.3723C127.422 84.7826 127.093 83.8934 126.854 83.118C126.736 82.7368 126.644 82.3948 126.581 82.1482C126.549 82.0251 126.525 81.9261 126.509 81.8583C126.501 81.8245 126.495 81.7984 126.491 81.7811C126.489 81.7725 126.488 81.766 126.487 81.7618C126.486 81.7597 126.486 81.7582 126.486 81.7573C126.485 81.7568 126.485 81.7565 126.485 81.7564C126.485 81.7563 126.485 81.7562 126.485 81.7562C126.485 81.7562 126.485 81.7562 126.485 81.7562C126.485 81.7563 126.485 81.7563 125.997 81.8651C125.509 81.9738 125.509 81.9739 125.509 81.974C125.509 81.974 125.509 81.9741 125.509 81.9742C125.509 81.9743 125.509 81.9745 125.509 81.9747C125.51 81.9751 125.51 81.9757 125.51 81.9764C125.51 81.9779 125.511 81.98 125.511 81.9826C125.512 81.9879 125.514 81.9955 125.516 82.0052C125.521 82.0248 125.528 82.0533 125.536 82.0896C125.553 82.1624 125.579 82.267 125.612 82.3962C125.678 82.6544 125.775 83.0126 125.899 83.4127C126.141 84.2 126.501 85.1985 126.952 85.9081L127.796 85.3723Z" fill="black"/>
<defs>
<filter id="filter0_d_271_62" x="0.5" y="0.5" width="183.001" height="179" filterUnits="userSpaceOnUse" color-interpolation-filters="sRGB">
<feFlood flood-opacity="0" result="BackgroundImageFix"/>
<feColorMatrix in="SourceAlpha" type="matrix" values="0 0 0 0 0 0 0 0 0 0 0 0 0 0 0 0 0 0 127 0" result="hardAlpha"/>
<feOffset dy="4"/>
<feGaussianBlur stdDeviation="2"/>
<feComposite in2="hardAlpha" operator="out"/>
<feColorMatrix type="matrix" values="0 0 0 0 0 0 0 0 0 0 0 0 0 0 0 0 0 0 0.25 0"/>
<feBlend mode="normal" in2="BackgroundImageFix" result="effect1_dropShadow_271_62"/>
<feBlend mode="normal" in="SourceGraphic" in2="effect1_dropShadow_271_62" result="shape"/>
</filter>
</defs>
</svg>
