<svg width="184" height="180" viewBox="0 0 184 180" fill="none" xmlns="http://www.w3.org/2000/svg">
<g filter="url(#filter0_d_271_36)">
<path fill-rule="evenodd" clip-rule="evenodd" d="M8.01379 47.7049C5.94609 50.4573 6.00013 55.6491 6.00013 55.6491L7.00683 161.406C7.00683 161.406 7.37169 165.969 9.18845 167.86C11.5411 170.31 15.9005 169.986 15.9005 169.986H168.1C168.1 169.986 172.881 169.386 174.812 167.529C176.763 165.653 176.993 161.214 176.993 161.214L177.497 108.266L178 55.3181C178 55.3181 177.505 49.0332 174.812 46.5464C172.254 44.1856 166.254 43.8984 166.254 43.8984H136.888H46.4411H15.9006C15.9006 43.8984 10.0248 45.0281 8.01379 47.7049ZM16.9075 54.3249C15.0876 55.952 15.565 60.614 15.565 60.614V156.275C15.565 156.275 15.5753 159.231 16.7397 160.413C17.8695 161.559 20.767 161.406 20.767 161.406L161.22 161.902C161.22 161.902 165.57 162.148 167.093 160.413C168.195 159.156 168.1 156.275 168.1 156.275L168.435 108.362L168.771 60.4485C168.771 60.4485 169.004 55.9255 167.261 54.3249C165.969 53.1391 162.898 53.1664 162.898 53.1664H21.4382C21.4382 53.1664 18.2617 53.1141 16.9075 54.3249Z" fill="#BC7100"/>
<path d="M15.565 60.614C15.565 60.614 15.0876 55.952 16.9075 54.3249C18.2617 53.1141 21.4382 53.1664 21.4382 53.1664H162.898C162.898 53.1664 165.969 53.1391 167.261 54.3249C169.004 55.9255 168.771 60.4485 168.771 60.4485L168.435 108.362L168.1 156.275C168.1 156.275 168.195 159.156 167.093 160.413C165.57 162.148 161.22 161.902 161.22 161.902L20.767 161.406C20.767 161.406 17.8695 161.559 16.7397 160.413C15.5753 159.231 15.565 156.275 15.565 156.275V60.614Z" fill="white"/>
<path d="M86.7142 3.35006C82.115 6.06413 80.7787 12.2662 83.8616 16.5903C86.4813 20.4483 91.1346 21.7786 95.4401 19.9004C97.0575 19.1949 98.3477 18.0161 99.259 16.5903C101.337 13.3391 101.444 8.8037 98.964 5.66711C95.9687 1.87861 90.8942 0.883425 86.7142 3.35006Z" fill="#7E4E05"/>
<path d="M6.00013 55.6491L7.50007 55.6348L7.50005 55.6335L6.00013 55.6491ZM8.01379 47.7049L9.21307 48.6059L9.21307 48.6059L8.01379 47.7049ZM15.9006 43.8984V42.3984H15.7577L15.6174 42.4253L15.9006 43.8984ZM166.254 43.8984L166.325 42.4001L166.29 42.3984H166.254V43.8984ZM174.812 46.5464L175.829 45.4443L174.812 46.5464ZM178 55.3181L179.5 55.3324L179.501 55.2663L179.495 55.2004L178 55.3181ZM176.993 161.214L178.491 161.292L178.493 161.26L178.493 161.228L176.993 161.214ZM174.812 167.529L173.772 166.448L173.772 166.448L174.812 167.529ZM168.1 169.986V171.486H168.193L168.286 171.474L168.1 169.986ZM15.9005 169.986V168.486H15.8448L15.7894 168.49L15.9005 169.986ZM9.18845 167.86L8.10665 168.899L9.18845 167.86ZM7.00683 161.406L5.5069 161.42L5.5074 161.473L5.5116 161.525L7.00683 161.406ZM83.8616 16.5903L85.1025 15.7477L85.0929 15.7335L85.0829 15.7196L83.8616 16.5903ZM86.7142 3.35006L85.9519 2.05822L86.7142 3.35006ZM98.964 5.66711L100.141 4.7368L98.964 5.66711ZM95.4401 19.9004L96.0399 21.2753L95.4401 19.9004ZM99.259 16.5903L97.9951 15.7825L99.259 16.5903ZM15.565 60.614H17.065V60.5374L17.0572 60.4612L15.565 60.614ZM16.9075 54.3249L17.9073 55.4431L16.9075 54.3249ZM21.4382 53.1664L21.4135 54.6662L21.4259 54.6664H21.4382V53.1664ZM162.898 53.1664V54.6664L162.911 54.6663L162.898 53.1664ZM167.261 54.3249L168.275 53.22L168.275 53.22L167.261 54.3249ZM168.771 60.4485L167.273 60.3713L167.271 60.4046L167.271 60.438L168.771 60.4485ZM168.1 156.275L166.6 156.264L166.599 156.295L166.6 156.325L168.1 156.275ZM167.093 160.413L168.22 161.402L168.22 161.402L167.093 160.413ZM161.22 161.902L161.304 160.404L161.265 160.402L161.225 160.402L161.22 161.902ZM20.767 161.406L20.7723 159.906L20.7299 159.906L20.6876 159.908L20.767 161.406ZM16.7397 160.413L15.6712 161.465L15.6712 161.465L16.7397 160.413ZM15.565 156.275H14.065L14.065 156.28L15.565 156.275ZM168.435 108.362L166.935 108.351L166.935 108.351L168.435 108.362ZM177.497 108.266L178.996 108.28L178.996 108.28L177.497 108.266ZM6.00013 55.6491C7.50005 55.6335 7.50005 55.6338 7.50006 55.634C7.50006 55.6341 7.50006 55.6343 7.50006 55.6344C7.50006 55.6347 7.50007 55.6348 7.50007 55.6349C7.50007 55.6351 7.50007 55.635 7.50006 55.6345C7.50006 55.6336 7.50004 55.6315 7.50003 55.6282C7.5 55.6216 7.49998 55.6102 7.50003 55.5944C7.50011 55.5626 7.50048 55.5127 7.50162 55.4467C7.50392 55.3145 7.50936 55.1181 7.52202 54.8719C7.54742 54.3779 7.60146 53.6927 7.71516 52.9305C7.95155 51.3458 8.41255 49.6715 9.21307 48.6059L6.81451 46.804C5.54733 48.4907 5.0015 50.7885 4.74799 52.4878C4.61674 53.3677 4.55506 54.1523 4.52598 54.7178C4.51139 55.0014 4.5049 55.2321 4.50208 55.3946C4.50066 55.4759 4.50017 55.5403 4.50004 55.5859C4.49997 55.6087 4.5 55.6268 4.50005 55.6401C4.50008 55.6467 4.50011 55.652 4.50014 55.6562C4.50016 55.6582 4.50017 55.66 4.50018 55.6614C4.50019 55.6621 4.5002 55.6627 4.5002 55.6633C4.5002 55.6636 4.50021 55.6639 4.50021 55.6641C4.50021 55.6644 4.50021 55.6647 6.00013 55.6491ZM9.21307 48.6059C9.92942 47.6523 11.5155 46.8203 13.2177 46.2098C14.0213 45.9215 14.7707 45.71 15.32 45.5706C15.5936 45.5012 15.8151 45.4503 15.9657 45.4173C16.041 45.4008 16.0983 45.3887 16.1355 45.3811C16.1541 45.3773 16.1676 45.3746 16.1758 45.373C16.1798 45.3722 16.1826 45.3716 16.1839 45.3714C16.1846 45.3712 16.1849 45.3712 16.1849 45.3712C16.1849 45.3712 16.1848 45.3712 16.1846 45.3712C16.1845 45.3713 16.1843 45.3713 16.1843 45.3713C16.1841 45.3713 16.1838 45.3714 15.9006 43.8984C15.6174 42.4253 15.6171 42.4254 15.6168 42.4255C15.6167 42.4255 15.6163 42.4256 15.6161 42.4256C15.6155 42.4257 15.6149 42.4258 15.6142 42.426C15.6127 42.4263 15.6109 42.4266 15.6088 42.427C15.6045 42.4279 15.5987 42.429 15.5916 42.4304C15.5774 42.4332 15.5577 42.4372 15.5327 42.4423C15.4829 42.4525 15.412 42.4674 15.3227 42.487C15.1441 42.5262 14.8908 42.5845 14.5822 42.6628C13.967 42.8189 13.1217 43.0571 12.2049 43.3859C10.4665 44.0094 8.10914 45.0807 6.81451 46.804L9.21307 48.6059ZM166.254 43.8984C166.182 45.3967 166.182 45.3966 166.181 45.3966C166.181 45.3966 166.181 45.3966 166.181 45.3966C166.181 45.3966 166.181 45.3966 166.181 45.3966C166.181 45.3966 166.181 45.3966 166.182 45.3967C166.183 45.3967 166.186 45.3969 166.19 45.3971C166.199 45.3975 166.213 45.3983 166.232 45.3995C166.27 45.4018 166.329 45.4056 166.406 45.4113C166.561 45.4227 166.79 45.4417 167.073 45.4718C167.642 45.5321 168.424 45.6356 169.277 45.8075C171.07 46.1689 172.844 46.7712 173.794 47.6486L175.829 45.4443C174.222 43.9608 171.717 43.239 169.87 42.8667C168.903 42.6717 168.025 42.5558 167.389 42.4885C167.07 42.4547 166.81 42.4329 166.627 42.4194C166.535 42.4126 166.463 42.4079 166.412 42.4049C166.386 42.4033 166.366 42.4022 166.352 42.4014C166.344 42.401 166.339 42.4007 166.334 42.4005C166.332 42.4004 166.33 42.4003 166.329 42.4002C166.328 42.4002 166.327 42.4002 166.327 42.4001C166.326 42.4001 166.326 42.4001 166.326 42.4001C166.326 42.4001 166.325 42.4001 166.254 43.8984ZM173.794 47.6486C174.789 48.5672 175.506 50.3692 175.959 52.2212C176.174 53.1015 176.312 53.9137 176.395 54.5064C176.437 54.8018 176.465 55.04 176.482 55.2018C176.49 55.2826 176.496 55.3441 176.5 55.384C176.502 55.4039 176.503 55.4184 176.504 55.4271C176.504 55.4315 176.505 55.4344 176.505 55.4359C176.505 55.4366 176.505 55.437 176.505 55.437C176.505 55.437 176.505 55.4369 176.505 55.4367C176.505 55.4366 176.505 55.4363 176.505 55.4363C176.505 55.4361 176.505 55.4358 178 55.3181C179.495 55.2004 179.495 55.2001 179.495 55.1998C179.495 55.1996 179.495 55.1993 179.495 55.199C179.495 55.1984 179.495 55.1977 179.495 55.1969C179.495 55.1954 179.495 55.1935 179.495 55.1912C179.494 55.1866 179.494 55.1804 179.493 55.1728C179.492 55.1577 179.49 55.1365 179.488 55.1098C179.483 55.0564 179.475 54.9805 179.465 54.8846C179.445 54.693 179.413 54.4208 179.366 54.088C179.273 53.4246 179.118 52.5102 178.873 51.5084C178.405 49.5963 177.528 47.0125 175.829 45.4443L173.794 47.6486ZM176.993 161.214C175.495 161.137 175.495 161.136 175.495 161.136C175.495 161.136 175.495 161.136 175.495 161.136C175.495 161.135 175.495 161.135 175.495 161.135C175.495 161.135 175.495 161.135 175.495 161.135C175.495 161.135 175.495 161.137 175.495 161.139C175.495 161.144 175.494 161.154 175.493 161.166C175.491 161.192 175.489 161.233 175.484 161.288C175.475 161.397 175.46 161.56 175.437 161.763C175.389 162.171 175.307 162.731 175.171 163.34C174.879 164.64 174.408 165.836 173.772 166.448L175.851 168.61C177.167 167.346 177.787 165.384 178.098 163.996C178.263 163.261 178.36 162.594 178.416 162.111C178.445 161.869 178.463 161.67 178.474 161.529C178.48 161.459 178.484 161.403 178.487 161.363C178.488 161.342 178.489 161.326 178.49 161.315C178.49 161.309 178.49 161.304 178.491 161.3C178.491 161.298 178.491 161.296 178.491 161.295C178.491 161.294 178.491 161.294 178.491 161.293C178.491 161.293 178.491 161.293 178.491 161.292C178.491 161.292 178.491 161.292 176.993 161.214ZM173.772 166.448C173.108 167.087 171.769 167.626 170.346 168.004C169.678 168.182 169.063 168.306 168.614 168.386C168.39 168.426 168.21 168.455 168.088 168.473C168.027 168.482 167.981 168.488 167.951 168.492C167.936 168.494 167.925 168.496 167.919 168.497C167.915 168.497 167.913 168.497 167.912 168.498C167.912 168.498 167.912 168.498 167.912 168.498C167.912 168.498 167.912 168.498 167.912 168.498C167.912 168.498 167.912 168.498 167.912 168.498C167.913 168.498 167.913 168.498 168.1 169.986C168.286 171.474 168.287 171.474 168.287 171.474C168.287 171.474 168.287 171.474 168.287 171.474C168.288 171.474 168.288 171.474 168.289 171.474C168.29 171.474 168.292 171.473 168.294 171.473C168.297 171.473 168.302 171.472 168.308 171.471C168.32 171.47 168.336 171.468 168.357 171.465C168.398 171.459 168.456 171.451 168.53 171.44C168.677 171.418 168.885 171.385 169.14 171.34C169.648 171.249 170.348 171.108 171.117 170.903C172.568 170.518 174.585 169.828 175.851 168.61L173.772 166.448ZM168.1 168.486H15.9005V171.486H168.1V168.486ZM15.9005 169.986C15.7894 168.49 15.7898 168.49 15.7902 168.49C15.7903 168.49 15.7907 168.49 15.7909 168.49C15.7914 168.49 15.7918 168.49 15.7921 168.49C15.7927 168.49 15.7931 168.49 15.7933 168.49C15.7935 168.49 15.7928 168.49 15.7911 168.49C15.7877 168.49 15.7803 168.491 15.7692 168.491C15.747 168.492 15.7098 168.494 15.6593 168.496C15.558 168.499 15.404 168.502 15.2092 168.498C14.8173 168.491 14.2727 168.46 13.6676 168.361C12.4135 168.157 11.1168 167.703 10.2703 166.821L8.10665 168.899C9.61277 170.467 11.6721 171.076 13.1858 171.322C13.9646 171.449 14.6569 171.489 15.1559 171.498C15.4066 171.502 15.6115 171.499 15.7579 171.494C15.8311 171.492 15.8899 171.489 15.9327 171.487C15.9541 171.485 15.9715 171.484 15.9847 171.484C15.9913 171.483 15.9969 171.483 16.0014 171.482C16.0036 171.482 16.0056 171.482 16.0073 171.482C16.0081 171.482 16.0089 171.482 16.0097 171.482C16.01 171.482 16.0105 171.482 16.0107 171.482C16.0112 171.482 16.0116 171.482 15.9005 169.986ZM10.2703 166.821C9.66743 166.194 9.1907 164.94 8.87783 163.586C8.73148 162.953 8.63654 162.37 8.57837 161.945C8.54942 161.733 8.52989 161.563 8.51781 161.448C8.51177 161.391 8.50761 161.348 8.50507 161.32C8.5038 161.306 8.50293 161.296 8.50244 161.291C8.50219 161.288 8.50204 161.286 8.50198 161.285C8.50195 161.285 8.50194 161.285 8.50195 161.285C8.50196 161.285 8.50197 161.285 8.50199 161.285C8.502 161.285 8.50201 161.286 8.50202 161.286C8.50204 161.286 8.50206 161.286 7.00683 161.406C5.5116 161.525 5.51162 161.526 5.51165 161.526C5.51166 161.526 5.51168 161.526 5.5117 161.527C5.51174 161.527 5.51179 161.528 5.51184 161.528C5.51194 161.529 5.51207 161.531 5.51222 161.533C5.51252 161.537 5.51292 161.541 5.51342 161.547C5.51442 161.559 5.51583 161.575 5.51767 161.595C5.52136 161.635 5.52681 161.691 5.5343 161.763C5.54926 161.905 5.57244 162.106 5.60608 162.352C5.6731 162.841 5.78292 163.517 5.95488 164.262C6.27863 165.662 6.89272 167.636 8.10665 168.899L10.2703 166.821ZM8.50676 161.391L7.50007 55.6348L4.5002 55.6634L5.5069 161.42L8.50676 161.391ZM15.9006 45.3984H46.4411V42.3984H15.9006V45.3984ZM46.4411 43.8984C47.3253 45.11 47.3254 45.11 47.3256 45.1098C47.3258 45.1097 47.326 45.1095 47.3264 45.1093C47.327 45.1088 47.3282 45.1079 47.3295 45.107C47.3323 45.105 47.3364 45.102 47.3419 45.0979C47.353 45.0899 47.3694 45.0779 47.3912 45.062C47.4348 45.0301 47.4997 44.9828 47.585 44.9205C47.7556 44.796 48.0078 44.612 48.3339 44.3741C48.986 43.8981 49.934 43.2063 51.1172 42.3428C53.4837 40.6159 56.7913 38.2022 60.5555 35.4552C68.0839 29.9612 77.439 23.1342 84.7458 17.802L82.9773 15.3787C75.6705 20.7109 66.3154 27.5379 58.787 33.0319C55.0228 35.7788 51.7153 38.1925 49.3488 39.9195C48.1655 40.783 47.2176 41.4748 46.5654 41.9507C46.2393 42.1887 45.9872 42.3727 45.8166 42.4972C45.7313 42.5594 45.6663 42.6068 45.6228 42.6386C45.601 42.6545 45.5845 42.6666 45.5735 42.6746C45.568 42.6786 45.5638 42.6817 45.561 42.6837C45.5596 42.6847 45.5587 42.6854 45.5579 42.6859C45.5576 42.6862 45.5573 42.6864 45.5571 42.6865C45.557 42.6866 45.5569 42.6867 46.4411 43.8984ZM85.0829 15.7196C82.5159 12.1188 83.6269 6.91363 87.4766 4.6419L85.9519 2.05822C80.6031 5.21463 79.0416 12.4136 82.6402 17.4611L85.0829 15.7196ZM87.4766 4.6419C91.0003 2.56253 95.2495 3.38762 97.7873 6.59742L100.141 4.7368C96.6878 0.369598 90.7881 -0.795685 85.9519 2.05822L87.4766 4.6419ZM94.8403 18.5255C91.1894 20.1182 87.3123 19.0019 85.1025 15.7477L82.6206 17.433C85.6503 21.8946 91.0799 23.4389 96.0399 21.2753L94.8403 18.5255ZM97.7873 6.59742C99.8144 9.16124 99.7803 12.9894 97.9951 15.7825L100.523 17.3981C102.894 13.6889 103.073 8.44615 100.141 4.7368L97.7873 6.59742ZM97.9951 15.7825C97.2278 16.983 96.1585 17.9505 94.8403 18.5255L96.0399 21.2753C97.9564 20.4392 99.4677 19.0491 100.523 17.3981L97.9951 15.7825ZM46.4411 45.3984H136.888V42.3984H46.4411V45.3984ZM136.888 45.3984H166.254V42.3984H136.888V45.3984ZM98.378 17.8043L136.007 45.1124L137.769 42.6844L100.14 15.3763L98.378 17.8043ZM15.565 60.614C17.0572 60.4612 17.0573 60.4615 17.0573 60.4618C17.0573 60.4618 17.0573 60.4621 17.0573 60.4622C17.0574 60.4625 17.0574 60.4627 17.0574 60.4628C17.0574 60.4631 17.0574 60.4631 17.0574 60.4628C17.0573 60.4622 17.0572 60.4606 17.0569 60.4579C17.0564 60.4525 17.0555 60.4428 17.0543 60.4292C17.0519 60.402 17.0483 60.3589 17.0441 60.3017C17.0358 60.1873 17.0254 60.0176 17.0179 59.8073C17.003 59.3836 17.0008 58.8097 17.0491 58.1978C17.098 57.5789 17.1952 56.9663 17.3598 56.4474C17.5291 55.9135 17.7314 55.6004 17.9073 55.4431L15.9077 53.2067C15.1736 53.863 14.7531 54.7428 14.5001 55.5406C14.2423 56.3535 14.1177 57.2115 14.0585 57.9615C13.9987 58.7185 14.0021 59.4118 14.0198 59.9131C14.0287 60.1652 14.0413 60.3724 14.052 60.5193C14.0574 60.5928 14.0622 60.6515 14.0659 60.6933C14.0678 60.7142 14.0693 60.731 14.0705 60.7433C14.0711 60.7495 14.0716 60.7545 14.072 60.7585C14.0722 60.7604 14.0724 60.7621 14.0725 60.7635C14.0726 60.7642 14.0726 60.7648 14.0727 60.7654C14.0727 60.7657 14.0728 60.766 14.0728 60.7662C14.0728 60.7665 14.0728 60.7668 15.565 60.614ZM17.9073 55.4431C18.2247 55.1593 18.9561 54.911 19.8938 54.7764C20.3143 54.716 20.7027 54.6882 20.9866 54.6757C21.1275 54.6695 21.24 54.6672 21.3147 54.6664C21.352 54.666 21.3797 54.666 21.3966 54.6661C21.4051 54.6661 21.4108 54.6662 21.4137 54.6662C21.4151 54.6662 21.4158 54.6662 21.4158 54.6662C21.4158 54.6662 21.4156 54.6662 21.4152 54.6662C21.415 54.6662 21.4148 54.6662 21.4145 54.6662C21.4144 54.6662 21.4141 54.6662 21.414 54.6662C21.4138 54.6662 21.4135 54.6662 21.4382 53.1664C21.4629 51.6666 21.4626 51.6666 21.4623 51.6666C21.4622 51.6666 21.4618 51.6666 21.4616 51.6666C21.4611 51.6666 21.4606 51.6665 21.46 51.6665C21.4589 51.6665 21.4575 51.6665 21.456 51.6665C21.4529 51.6664 21.449 51.6664 21.4444 51.6663C21.4352 51.6662 21.4229 51.6662 21.4077 51.6661C21.3775 51.666 21.3356 51.666 21.2834 51.6666C21.1791 51.6677 21.0329 51.6707 20.8549 51.6786C20.5008 51.6941 20.0104 51.7289 19.4676 51.8068C18.4785 51.9488 16.9445 52.2797 15.9077 53.2067L17.9073 55.4431ZM21.4382 54.6664H162.898V51.6664H21.4382V54.6664ZM162.898 53.1664C162.911 54.6663 162.911 54.6663 162.91 54.6663C162.91 54.6663 162.91 54.6663 162.91 54.6663C162.91 54.6663 162.909 54.6663 162.909 54.6663C162.909 54.6663 162.909 54.6663 162.909 54.6663C162.908 54.6663 162.909 54.6663 162.91 54.6663C162.913 54.6663 162.918 54.6663 162.926 54.6663C162.943 54.6664 162.969 54.6666 163.005 54.6673C163.077 54.6686 163.185 54.6716 163.32 54.6786C163.593 54.6928 163.966 54.7226 164.369 54.7839C165.273 54.9215 165.959 55.1661 166.246 55.4298L168.275 53.22C167.271 52.2979 165.775 51.9633 164.82 51.818C164.294 51.738 163.819 51.7005 163.475 51.6827C163.303 51.6737 163.161 51.6696 163.059 51.6678C163.009 51.6668 162.968 51.6665 162.938 51.6664C162.924 51.6663 162.912 51.6663 162.903 51.6663C162.898 51.6664 162.894 51.6664 162.891 51.6664C162.89 51.6664 162.888 51.6664 162.887 51.6664C162.887 51.6664 162.886 51.6664 162.886 51.6664C162.885 51.6664 162.885 51.6664 162.885 51.6664C162.885 51.6664 162.884 51.6664 162.898 53.1664ZM166.246 55.4298C166.424 55.5934 166.631 55.9144 166.814 56.4449C166.99 56.9592 167.108 57.5617 167.18 58.1656C167.252 58.7633 167.275 59.3227 167.28 59.7348C167.283 59.9395 167.28 60.1046 167.278 60.2159C167.276 60.2715 167.275 60.3135 167.274 60.34C167.274 60.3533 167.273 60.3627 167.273 60.368C167.273 60.3706 167.273 60.3722 167.273 60.3728C167.273 60.3731 167.273 60.3731 167.273 60.3729C167.273 60.3727 167.273 60.3726 167.273 60.3723C167.273 60.3722 167.273 60.3719 167.273 60.3719C167.273 60.3716 167.273 60.3713 168.771 60.4485C170.269 60.5257 170.269 60.5254 170.269 60.5251C170.269 60.525 170.269 60.5246 170.269 60.5243C170.269 60.5238 170.269 60.5232 170.269 60.5225C170.269 60.5212 170.269 60.5196 170.269 60.5177C170.269 60.5139 170.27 60.509 170.27 60.503C170.27 60.4911 170.271 60.4749 170.272 60.4547C170.273 60.4142 170.275 60.3574 170.277 60.2862C170.28 60.1439 170.283 59.9431 170.28 59.6988C170.274 59.2128 170.247 58.5414 170.159 57.8083C170.072 57.0814 169.92 56.253 169.65 55.469C169.386 54.7013 168.969 53.8567 168.275 53.22L166.246 55.4298ZM168.1 156.275C166.6 156.325 166.6 156.324 166.6 156.324C166.6 156.324 166.6 156.324 166.6 156.324C166.6 156.323 166.6 156.323 166.6 156.323C166.6 156.322 166.6 156.322 166.6 156.322C166.6 156.322 166.6 156.322 166.6 156.323C166.6 156.326 166.601 156.33 166.601 156.338C166.601 156.352 166.601 156.377 166.602 156.41C166.602 156.476 166.601 156.576 166.598 156.702C166.591 156.956 166.571 157.303 166.522 157.679C166.412 158.526 166.197 159.159 165.965 159.423L168.22 161.402C169.091 160.41 169.379 158.973 169.497 158.066C169.562 157.565 169.587 157.113 169.597 156.788C169.601 156.624 169.602 156.489 169.601 156.393C169.601 156.345 169.601 156.306 169.6 156.277C169.6 156.263 169.599 156.252 169.599 156.243C169.599 156.239 169.599 156.235 169.599 156.232C169.599 156.231 169.599 156.229 169.599 156.228C169.599 156.228 169.599 156.227 169.599 156.227C169.599 156.226 169.599 156.226 169.599 156.226C169.599 156.226 169.599 156.225 168.1 156.275ZM165.965 159.423C165.819 159.59 165.527 159.788 165.031 159.964C164.548 160.136 163.979 160.249 163.404 160.319C162.836 160.388 162.302 160.41 161.909 160.413C161.714 160.415 161.556 160.413 161.451 160.41C161.398 160.408 161.358 160.407 161.333 160.406C161.32 160.405 161.312 160.405 161.307 160.405C161.304 160.404 161.303 160.404 161.303 160.404C161.302 160.404 161.302 160.404 161.303 160.404C161.303 160.404 161.303 160.404 161.303 160.404C161.303 160.404 161.304 160.404 161.304 160.404C161.304 160.404 161.304 160.404 161.22 161.902C161.135 163.4 161.135 163.4 161.135 163.4C161.136 163.4 161.136 163.4 161.136 163.4C161.137 163.4 161.137 163.4 161.138 163.4C161.139 163.4 161.141 163.4 161.143 163.4C161.147 163.4 161.151 163.401 161.157 163.401C161.169 163.401 161.185 163.402 161.205 163.403C161.244 163.405 161.299 163.407 161.368 163.409C161.506 163.412 161.701 163.416 161.937 163.413C162.407 163.409 163.057 163.384 163.766 163.297C164.469 163.212 165.273 163.062 166.035 162.791C166.782 162.525 167.605 162.103 168.22 161.402L165.965 159.423ZM161.225 160.402L20.7723 159.906L20.7617 162.906L161.214 163.402L161.225 160.402ZM20.767 161.406C20.6876 159.908 20.6879 159.908 20.6882 159.908C20.6883 159.908 20.6886 159.908 20.6887 159.908C20.689 159.908 20.6893 159.908 20.6896 159.908C20.69 159.908 20.6903 159.908 20.6905 159.908C20.6907 159.908 20.6903 159.908 20.6893 159.908C20.6872 159.908 20.6825 159.908 20.6753 159.908C20.661 159.909 20.6369 159.91 20.6042 159.91C20.5387 159.912 20.4393 159.913 20.3149 159.912C20.0635 159.909 19.7224 159.894 19.3576 159.85C18.9874 159.805 18.6294 159.734 18.3299 159.632C18.0177 159.525 17.8651 159.418 17.8081 159.36L15.6712 161.465C16.1791 161.981 16.8124 162.284 17.3613 162.471C17.9229 162.663 18.5011 162.768 18.9964 162.828C19.4972 162.889 19.9511 162.908 20.2783 162.912C20.4431 162.914 20.579 162.912 20.6763 162.91C20.725 162.908 20.7643 162.907 20.793 162.906C20.8074 162.905 20.8191 162.905 20.828 162.905C20.8325 162.904 20.8362 162.904 20.8393 162.904C20.8408 162.904 20.8422 162.904 20.8433 162.904C20.8439 162.904 20.8445 162.904 20.845 162.904C20.8452 162.904 20.8456 162.904 20.8457 162.904C20.846 162.904 20.8463 162.904 20.767 161.406ZM17.8081 159.36C17.5817 159.13 17.3398 158.519 17.1952 157.653C17.1316 157.273 17.0985 156.918 17.0817 156.658C17.0733 156.529 17.0691 156.426 17.067 156.358C17.066 156.324 17.0655 156.299 17.0652 156.284C17.0651 156.276 17.0651 156.271 17.065 156.269C17.065 156.268 17.065 156.267 17.065 156.267C17.065 156.267 17.065 156.268 17.065 156.268C17.065 156.268 17.065 156.268 17.065 156.269C17.065 156.269 17.065 156.269 17.065 156.269C17.065 156.269 17.065 156.27 15.565 156.275C14.065 156.28 14.065 156.28 14.065 156.281C14.065 156.281 14.065 156.281 14.065 156.281C14.0651 156.282 14.0651 156.282 14.0651 156.283C14.0651 156.284 14.0651 156.285 14.0651 156.287C14.0651 156.29 14.0651 156.294 14.0652 156.298C14.0653 156.307 14.0654 156.319 14.0656 156.333C14.0661 156.362 14.0669 156.401 14.0685 156.45C14.0715 156.548 14.0772 156.686 14.088 156.852C14.1094 157.183 14.1517 157.642 14.2362 158.148C14.3878 159.055 14.7332 160.513 15.6712 161.465L17.8081 159.36ZM17.065 156.275V60.614H14.065V156.275H17.065ZM167.271 60.438L166.935 108.351L169.935 108.372L170.271 60.459L167.271 60.438ZM166.935 108.351L166.6 156.264L169.6 156.285L169.935 108.372L166.935 108.351ZM176.5 55.3038L175.997 108.252L178.996 108.28L179.5 55.3324L176.5 55.3038ZM175.997 108.252L175.493 161.2L178.493 161.228L178.996 108.28L175.997 108.252Z" fill="black"/>
</g>
<rect x="59.5" y="69.5742" width="59.7839" height="75.9267" rx="3.5" fill="white" stroke="black" stroke-width="3"/>
<path d="M71.1743 83.0625L109.054 82.4915" stroke="black" stroke-width="3" stroke-linecap="round"/>
<path d="M71.1743 91.8086L109.054 91.2376" stroke="black" stroke-width="3" stroke-linecap="round"/>
<path d="M71.1743 101.648L109.054 101.077" stroke="black" stroke-width="3" stroke-linecap="round"/>
<path d="M98.3146 109.313L131.506 76.2585L144.718 89.4164L111.527 122.471C110.157 123.835 107.936 123.835 106.567 122.471L98.3146 114.253C96.945 112.889 96.945 110.677 98.3146 109.313Z" fill="#FFF282" stroke="black" stroke-width="3"/>
<path d="M131.487 76.2617L134.646 73.1152C137.972 69.8026 143.365 69.8026 146.691 73.1152L147.851 74.2704C151.178 77.5831 151.178 82.9539 147.851 86.2665L144.692 89.413L131.487 76.2617Z" fill="#FFD2FD" stroke="black" stroke-width="3"/>
<path d="M107.749 123.684L93.1303 127.614L97.0772 113.056L107.749 123.684Z" fill="white" stroke="black" stroke-width="3"/>
<path d="M125.5 83.5L138.5 95L145 89L132 77L125.5 83.5Z" fill="#C4C4C4" stroke="black" stroke-width="3"/>
<defs>
<filter id="filter0_d_271_36" x="0.5" y="0.5" width="183" height="179" filterUnits="userSpaceOnUse" color-interpolation-filters="sRGB">
<feFlood flood-opacity="0" result="BackgroundImageFix"/>
<feColorMatrix in="SourceAlpha" type="matrix" values="0 0 0 0 0 0 0 0 0 0 0 0 0 0 0 0 0 0 127 0" result="hardAlpha"/>
<feOffset dy="4"/>
<feGaussianBlur stdDeviation="2"/>
<feComposite in2="hardAlpha" operator="out"/>
<feColorMatrix type="matrix" values="0 0 0 0 0 0 0 0 0 0 0 0 0 0 0 0 0 0 0.25 0"/>
<feBlend mode="normal" in2="BackgroundImageFix" result="effect1_dropShadow_271_36"/>
<feBlend mode="normal" in="SourceGraphic" in2="effect1_dropShadow_271_36" result="shape"/>
</filter>
</defs>
</svg>
